<svg xmlns="http://www.w3.org/2000/svg" viewBox="0 0 500 500"><g id="freepik--background-complete--inject-6"><rect x="39.46" y="273.91" width="63.04" height="63.04" rx="6.37" transform="translate(-62.36 21.62) rotate(-12.08)" style="fill:#ebebeb"></rect><path d="M93.28,311.37A4.1,4.1,0,0,0,92.9,310l-.17-.43a11.17,11.17,0,0,0-4.8-4.52,24.3,24.3,0,0,0-5.76-2.22l-.25-.06a.36.36,0,0,0-.41.17l-3.91,6.69-14.35-9.2,3.91-7.23a.37.37,0,0,0,0-.29.34.34,0,0,0-.2-.22l-3.29-1.58c-.54-.25-.88-.41-1.1-.48a2.24,2.24,0,0,0-.32-.17l-.19-.1a4.93,4.93,0,0,0-.74-.32,10.17,10.17,0,0,0-3.92-.6,10.06,10.06,0,0,0-5.86,2.23,9.32,9.32,0,0,0-3.52,7.45,6.55,6.55,0,0,0,2.12,4.54,12.51,12.51,0,0,0,2.09,1.53l21.83,14c.27.16.54.34.81.51a20.93,20.93,0,0,0,2,1.19,12.45,12.45,0,0,0,3.27,1.15,11.84,11.84,0,0,0,2.37.24,11.31,11.31,0,0,0,4.61-1,10.52,10.52,0,0,0,5.11-4.84,8.42,8.42,0,0,0,.68-1.63l.09-.29a4.69,4.69,0,0,0,.31-1.45l.06-.94Zm-27.35-18-4.1,7.23a.38.38,0,0,0,.11.5l15.8,10.36a.33.33,0,0,0,.29.05.37.37,0,0,0,.24-.17l4.07-6.89a22.4,22.4,0,0,1,4.88,2,10,10,0,0,1,4.16,3.85c.05.14.1.28.16.42a2.59,2.59,0,0,1,.26.94l.11.65-.07.8a3.67,3.67,0,0,1-.23,1.08l-.1.31a6.64,6.64,0,0,1-.58,1.38A9.18,9.18,0,0,1,86.54,320a10.11,10.11,0,0,1-6.09.63,11.55,11.55,0,0,1-2.88-1c-.63-.32-1.26-.73-1.87-1.12l-.82-.52L53,304.1a12.5,12.5,0,0,1-1.91-1.37,5.23,5.23,0,0,1-1.75-3.62,8.23,8.23,0,0,1,3-6.5,9.2,9.2,0,0,1,5.17-2.09h.67a9.41,9.41,0,0,1,3.82.75l.33.13c.2.13.52.3,1,.56Z" style="fill:#fff"></path><path d="M72.66,295.53a27.33,27.33,0,0,0,4.39-.7c.84,4.22,1.15,4.67,1.46,4.67l.12,0h0c.35-.07.63-.13-.27-4.92,4.88-1.06,4.84-1.34,4.78-1.69h0a.43.43,0,0,0-.18-.26c-.28-.19-1.92,0-4.86.64-.56-2.85-1-4.4-1.27-4.59a.42.42,0,0,0-.56.1c-.19.28,0,1.89.53,4.76-4.49,1-4.67,1.3-4.74,1.42a.42.42,0,0,0,0,.33C72.09,295.41,72.13,295.53,72.66,295.53Z" style="fill:#fff"></path><rect x="352.36" y="60.07" width="109.21" height="180.77" style="fill:#e0e0e0"></rect><rect x="348.73" y="60.07" width="109.21" height="180.77" style="fill:#ebebeb"></rect><rect x="353.38" y="63.74" width="99.91" height="173.44" style="fill:#fafafa"></rect><rect x="372.4" y="86.28" width="61.43" height="128.36" style="fill:#ebebeb"></rect><path d="M372.4,169.22c-.14-12,10.64-23.7,22.51-25.38,5.67-.79,11.68.33,17-1.84,9.45-3.87,12.45-16.42,21.95-20.14l.44,92.78H372.4Z" style="fill:#e0e0e0"></path><rect x="237.16" y="59.73" width="84" height="87.57" style="fill:#e0e0e0"></rect><rect x="231.47" y="59.73" width="84" height="87.57" style="fill:#fafafa"></rect><path d="M315.5,147.32H231.44V59.7H315.5Zm-84,0h83.95V59.76H231.5Z" style="fill:#e0e0e0"></path><rect x="242.76" y="71.5" width="61.42" height="64.02" style="fill:#fafafa"></rect><path d="M242.76,136a9.51,9.51,0,0,1-1.51,1.76c-1,1-2.36,2.44-3.91,4s-3,2.88-4,3.84a10.53,10.53,0,0,1-1.77,1.48,9.42,9.42,0,0,1,1.5-1.76c1-1,2.37-2.44,3.92-4s3-2.89,4-3.85A9.34,9.34,0,0,1,242.76,136Z" style="fill:#e0e0e0"></path><path d="M304.18,135.79a9.88,9.88,0,0,1,1.76,1.52c1,1,2.44,2.36,4,3.9s2.88,3,3.84,4a10.32,10.32,0,0,1,1.48,1.78,10.35,10.35,0,0,1-1.76-1.51c-1-1-2.43-2.36-4-3.91s-2.89-3-3.85-4A9.55,9.55,0,0,1,304.18,135.79Z" style="fill:#e0e0e0"></path><path d="M304,71.67a10.31,10.31,0,0,1,1.52-1.76c1-1,2.36-2.44,3.9-4s3-2.88,4-3.84a10.32,10.32,0,0,1,1.78-1.48,9.91,9.91,0,0,1-1.51,1.76c-1,1-2.36,2.44-3.91,4s-3,2.89-4,3.85A9.55,9.55,0,0,1,304,71.67Z" style="fill:#e0e0e0"></path><path d="M242.59,71.83a10.78,10.78,0,0,1-1.76-1.52c-1-1-2.43-2.36-4-3.9s-2.87-3-3.84-4a9.38,9.38,0,0,1-1.47-1.78,10.11,10.11,0,0,1,1.75,1.51c1,1,2.44,2.36,4,3.91s2.88,3,3.84,4A9.05,9.05,0,0,1,242.59,71.83Z" style="fill:#e0e0e0"></path><path d="M304,135.52s0-.11,0-.31,0-.51,0-.89c0-.8,0-2,0-3.46,0-3,0-7.44-.06-13,0-11.22-.07-27.19-.12-46.32l.23.24-61.24,0h0l.27-.27c0,23.5,0,45.48,0,64l-.24-.23,44.35.12,12.46.06,3.29,0H304a1.15,1.15,0,0,1-.27,0h-.82l-3.26,0-12.4.06-44.5.12h-.23v-.24c0-18.54,0-40.52,0-64v-.27h.28l61.24,0h.24v.24c-.05,19.19-.09,35.22-.12,46.47,0,5.58-.05,10-.06,13,0,1.48,0,2.62,0,3.41,0,.37,0,.66,0,.87A1.32,1.32,0,0,1,304,135.52Z" style="fill:#e0e0e0"></path><rect x="263.22" y="93.27" width="20.49" height="20.49" style="fill:#ebebeb"></rect><polygon points="459.69 428.45 456.45 461.74 439.26 461.74 435.88 428.45 459.69 428.45" style="fill:#e0e0e0"></polygon><rect x="433.85" y="426.01" width="28.42" height="2.44" transform="translate(896.11 854.46) rotate(180)" style="fill:#ebebeb"></rect><polygon points="456.85 421.82 459.69 426.56 437.09 426.56 438.18 421.82 456.85 421.82" style="fill:#ebebeb"></polygon><polygon points="458.6 439.66 457.44 451.54 438.22 451.54 437.01 439.66 458.6 439.66" style="fill:#f5f5f5"></polygon><path d="M445.34,448.94a5.48,5.48,0,0,1,.89-2.94c.48-.74,1.06-1.38,1.53-2a6.19,6.19,0,0,0,1-1.87,3.48,3.48,0,0,0,.15-.83l.13.07a3,3,0,0,1,1.26,2,5.59,5.59,0,0,1-.11,2.37,5.1,5.1,0,0,1-1.25,2.52,3.43,3.43,0,0,1-3,.93A2.54,2.54,0,0,1,445.34,448.94Z" style="fill:#fafafa"></path><path d="M443.88,446.33a10.29,10.29,0,0,1,.61-3.12,3.43,3.43,0,0,1,2.28-2.1,2.63,2.63,0,0,1,1.65.07,3.88,3.88,0,0,1-.2.84,6.51,6.51,0,0,1-1,1.76c-.47.62-1.06,1.26-1.56,2a5.4,5.4,0,0,0-.88,2.45,4.78,4.78,0,0,0,0,.53,2,2,0,0,1-.66-.66A3.26,3.26,0,0,1,443.88,446.33Z" style="fill:#fafafa"></path><path d="M304.73,410.43c15.52-15.53,15.44-39.22,11.06-59.75-.73-3.42-1-7.12-3.17-9.86s-6.38-4.11-9.21-2.11c-2.34,1.66-2.93,4.84-3.92,7.55a20.41,20.41,0,0,1-6.71,9.16c-2,1.53-4.58,2.71-7,1.91-3.27-1.12-4.35-5.16-4.94-8.59q-1.65-9.6-3.29-19.19c-.59-3.44-1.21-6.94-2.85-10s-4.54-5.67-8-6-7.12,2.26-7.21,5.74a31.56,31.56,0,0,0,.66,4.29c.16,1.44-.22,3.13-1.5,3.77s-2.84-.08-4.05-.9c-4.15-2.83-7.35-6.87-10.38-10.9s-6-8.19-9.91-11.39-8.85-5.41-13.81-4.81-9.65,4.56-10,9.6,3.31,9.46,7.08,12.82a77.24,77.24,0,0,0,18.64,12.35,6.48,6.48,0,0,1,3.17,2.39c1.16,2.16-.61,4.81-2.73,6-2.4,1.3-5.22,1.53-7.84,2.32s-5.3,2.49-5.86,5.19c-.78,3.76,2.8,6.91,6.11,8.8a66.75,66.75,0,0,0,21.4,7.75c2.69.47,5.48.81,7.83,2.22s4.13,4.27,3.33,6.9-3.81,4-6.54,3.95-5.35-1-8-1.53c-5-.94-11.05.47-13.35,5.08-1.5,3-1,6.79.56,9.8a25.28,25.28,0,0,0,6.7,7.54,66.89,66.89,0,0,0,31.68,14.77c11.6,1.85,21.91,1.07,32.06-4.84" style="fill:#f5f5f5"></path><path d="M297.1,398.43A312.29,312.29,0,0,0,279,367.53l-5.15-7.85c-1.7-2.58-3.39-5.13-5.19-7.53A153.48,153.48,0,0,0,257.53,339c-3.75-4-7.45-7.7-10.93-11.11s-6.82-6.52-10-9.23A124.24,124.24,0,0,0,220.86,307c-2-1.23-3.51-2.13-4.58-2.72l-1.21-.68a2.81,2.81,0,0,0-.42-.2,2.23,2.23,0,0,0,.39.26l1.18.73c1,.63,2.57,1.57,4.51,2.82A131.35,131.35,0,0,1,236.34,319c3.12,2.72,6.41,5.85,9.89,9.26s7.15,7.12,10.87,11.14a157.21,157.21,0,0,1,11.07,13.14c1.79,2.39,3.46,4.92,5.16,7.5l5.15,7.86a319,319,0,0,1,18.09,30.81" style="fill:#e0e0e0"></path><path d="M268.49,352.16a7.92,7.92,0,0,0,.07-1.52c0-1,0-2.4-.08-4.15-.12-3.5-.46-8.33-.85-13.65s-.66-10.14-.73-13.63c0-1.75,0-3.16,0-4.14a6.52,6.52,0,0,0-.08-1.52,7.42,7.42,0,0,0-.17,1.51c-.08,1-.13,2.4-.15,4.15,0,3.5.15,8.35.54,13.67s.76,10,1,13.63c.11,1.64.2,3,.28,4.13A6.34,6.34,0,0,0,268.49,352.16Z" style="fill:#e0e0e0"></path><path d="M222.94,351.77a8.7,8.7,0,0,0,1.8-.1c1.15-.1,2.81-.26,4.87-.38,4.11-.28,9.81-.48,16.1-.41s12,.38,16.11.72c2.06.16,3.72.33,4.87.44a10,10,0,0,0,1.8.12,9.78,9.78,0,0,0-1.77-.37c-1.14-.19-2.8-.43-4.86-.64-4.11-.46-9.83-.85-16.14-.92a159.27,159.27,0,0,0-16.15.6c-2.06.19-3.72.41-4.87.59A9.49,9.49,0,0,0,222.94,351.77Z" style="fill:#e0e0e0"></path><path d="M296.41,397.72a2.5,2.5,0,0,0,.21-.59c.12-.47.28-1,.47-1.73.4-1.5.92-3.69,1.53-6.41,1.23-5.43,2.69-13,4.19-21.33s2.88-15.92,4-21.36c.54-2.65,1-4.83,1.33-6.45.14-.7.26-1.28.36-1.76a2.57,2.57,0,0,0,.08-.62,1.85,1.85,0,0,0-.21.59l-.47,1.73c-.4,1.5-.93,3.69-1.54,6.41-1.22,5.43-2.68,13-4.18,21.34s-2.89,15.91-4,21.35c-.55,2.65-1,4.83-1.33,6.45-.15.7-.26,1.28-.36,1.76A2.57,2.57,0,0,0,296.41,397.72Z" style="fill:#e0e0e0"></path><path d="M234.48,389.28a2.71,2.71,0,0,0,.62.13l1.8.27,6.64.91c5.6.78,13.32,1.94,21.86,3.23s16.28,2.38,21.9,3c2.81.33,5.08.57,6.66.71l1.81.14a2.39,2.39,0,0,0,.64,0,2.49,2.49,0,0,0-.62-.14l-1.81-.26-6.63-.92c-5.6-.77-13.33-1.93-21.86-3.22s-16.28-2.38-21.9-3c-2.81-.33-5.08-.58-6.66-.71l-1.82-.15A2,2,0,0,0,234.48,389.28Z" style="fill:#e0e0e0"></path><rect x="45.3" y="42.97" width="70.86" height="73.87" transform="translate(0.18 -0.18) rotate(0.13)" style="fill:#e0e0e0"></rect><rect x="40.5" y="42.95" width="70.86" height="73.87" transform="translate(0.18 -0.17) rotate(0.13)" style="fill:#455a64"></rect><path d="M111.3,116.92l-70.9-.16.17-73.91,70.9.16Z" style="fill:#f5f5f5"></path><rect x="50.03" y="52.88" width="51.81" height="54.01" transform="translate(0.18 -0.17) rotate(0.13)" style="fill:#fff"></rect><path d="M50,107.19a8.92,8.92,0,0,1-1.28,1.48c-.83.87-2,2-3.31,3.33s-2.5,2.43-3.39,3.24a7.49,7.49,0,0,1-1.5,1.24A8.79,8.79,0,0,1,41.77,115c.83-.87,2-2,3.31-3.33s2.51-2.43,3.39-3.24A8.21,8.21,0,0,1,50,107.19Z" style="fill:#e0e0e0"></path><path d="M101.78,107.18a8.79,8.79,0,0,1,1.48,1.28c.87.83,2,2,3.33,3.3s2.42,2.51,3.23,3.39a9.24,9.24,0,0,1,1.25,1.5,7.51,7.51,0,0,1-1.48-1.27c-.87-.83-2-2-3.34-3.31s-2.43-2.52-3.24-3.4A8,8,0,0,1,101.78,107.18Z" style="fill:#e0e0e0"></path><path d="M101.76,53.09A8.17,8.17,0,0,1,103,51.6c.83-.87,2-2.05,3.3-3.33s2.51-2.42,3.39-3.23a8.21,8.21,0,0,1,1.5-1.24A8,8,0,0,1,110,45.27c-.83.88-2,2.06-3.31,3.34s-2.51,2.43-3.4,3.24A8,8,0,0,1,101.76,53.09Z" style="fill:#e0e0e0"></path><path d="M50,53.1a8.35,8.35,0,0,1-1.48-1.28c-.88-.83-2-2-3.34-3.3S42.71,46,41.9,45.13a8.21,8.21,0,0,1-1.24-1.5,8.25,8.25,0,0,1,1.48,1.27c.87.83,2,2,3.33,3.31s2.43,2.51,3.24,3.4A8,8,0,0,1,50,53.1Z" style="fill:#e0e0e0"></path><path d="M101.64,107a1.33,1.33,0,0,1,0-.26c0-.19,0-.44,0-.76,0-.67,0-1.65,0-2.91,0-2.56,0-6.28,0-11,0-9.46,0-22.93,0-39.07l.2.2L50.1,53.05h0l.23-.22c-.06,19.82-.11,38.36-.16,54l-.19-.2,37.41.19,10.51.08,2.78,0h0L98,107,87.5,107,50,107h-.2v-.2c0-15.64.06-34.18.09-54v-.23h.24l51.66.14h.2v.2c-.08,16.19-.15,29.71-.19,39.2,0,4.71-.06,8.41-.08,11q0,1.88,0,2.88c0,.31,0,.55,0,.73S101.64,107,101.64,107Z" style="fill:#e0e0e0"></path><path d="M66.35,94.5a11.47,11.47,0,0,1-.48-15.08c1.45-1.64,3.36-2.85,4.7-4.58,2.9-3.76,2.87-9.69,6.9-12.21,2.93-1.83,7.14-.77,9.28,1.95a9.84,9.84,0,0,1,.9,9.85c-1,2.34-2.82,4.33-3.55,6.77S83.76,86.45,83,89c-1,3-4.14,4.91-7.1,6a13.31,13.31,0,0,1-9.53-.45" style="fill:#f5f5f5"></path><path d="M81,69.66a9.24,9.24,0,0,1-.51,1.42c-.34.91-.89,2.21-1.61,3.79a108.17,108.17,0,0,1-6.43,12,107,107,0,0,1-7.92,11c-1.11,1.35-2,2.41-2.69,3.13a10.77,10.77,0,0,1-1.06,1.08,8.17,8.17,0,0,1,.92-1.2c.62-.75,1.5-1.85,2.57-3.21A129.16,129.16,0,0,0,72,86.61a129,129,0,0,0,6.53-11.88c.75-1.56,1.35-2.83,1.75-3.72A8.47,8.47,0,0,1,81,69.66Z" style="fill:#e0e0e0"></path><path d="M70.24,79a17.27,17.27,0,0,1,.41,2.73c.2,1.71.45,4.08.7,6.77L71,88.31l1.12-.65c2.59-1.51,5-2.85,6.67-3.8a22.24,22.24,0,0,1,2.83-1.45A20.66,20.66,0,0,1,79,84.15c-1.67,1-4,2.41-6.6,3.91l-1.12.65-.31.18,0-.36c-.24-2.68-.43-5.07-.55-6.78A16.91,16.91,0,0,1,70.24,79Z" style="fill:#e0e0e0"></path><path d="M83.86,75a8.92,8.92,0,0,1-1.75,1c-1.11.55-2.64,1.27-4.36,2l-.53.24-.28.13,0-.3c-.26-1.73-.48-3.27-.61-4.38a7.44,7.44,0,0,1-.12-1.81,7.35,7.35,0,0,1,.43,1.76c.22,1.1.49,2.63.76,4.36L77,77.87l.53-.24c1.71-.78,3.27-1.46,4.41-1.93A9.42,9.42,0,0,1,83.86,75Z" style="fill:#e0e0e0"></path></g><g id="freepik--Floor--inject-6"><path d="M473.51,461.74c0,.15-101,.26-225.5.26s-225.52-.11-225.52-.26,101-.26,225.52-.26S473.51,461.6,473.51,461.74Z" style="fill:#263238"></path></g><g id="freepik--Plant--inject-6"><path d="M145.13,373.25c4.71-2.43,10.25-2.75,15.48-1.88,2.81.46,5.74,1.3,7.65,3.41s2.28,5.83.08,7.64a7.39,7.39,0,0,1-4.82,1.23c-4.1,0-8.64-.77-11.91,1.69-1.86,1.41-3.11,3.74-5.34,4.43a5.27,5.27,0,0,1-5.8-2.58,9,9,0,0,1-.66-6.65A10.16,10.16,0,0,1,145.13,373.25Z" style="fill:#D10024"></path><path d="M134.33,352.42c2.88,4.11,8.48,2.75,11.08.24s3.69-6.15,4.69-9.62c2.28-7.93,4.58-16.25,2.89-24.32a13.55,13.55,0,0,0-3.11-6.62,7.07,7.07,0,0,0-6.69-2.22c-2.82.74-4.58,3.51-5.85,6.14a57.94,57.94,0,0,0-5.72,24.88c0,4,.45,8.21,2.71,11.52" style="fill:#D10024"></path><path d="M126.43,358.32c3.12-3.71,3.72-9.12,2.32-13.77s-4.53-8.61-8.15-11.84A44.17,44.17,0,0,0,106,324.09,15.52,15.52,0,0,0,99.42,323a6.9,6.9,0,0,0-5.52,3.33c-1.53,2.94-.06,6.49,1.53,9.39a110.58,110.58,0,0,0,9.6,14.62c2.88,3.7,6.17,7.36,10.55,9s8.94,1.48,11.26-1.56" style="fill:#D10024"></path><path d="M134.14,414.47a9.25,9.25,0,0,0,.26-1.87c.13-1.36.3-3.07.5-5.1A73.26,73.26,0,0,1,136,400a59.12,59.12,0,0,1,2.72-8.83,32.71,32.71,0,0,1,4.51-8,16.75,16.75,0,0,1,5.7-4.74,16,16,0,0,1,4.81-1.5,8.22,8.22,0,0,0,1.86-.27,9.29,9.29,0,0,0-1.9,0,14.65,14.65,0,0,0-5,1.31,16.77,16.77,0,0,0-6,4.78,31.78,31.78,0,0,0-4.67,8.15,53.56,53.56,0,0,0-2.7,9,62.68,62.68,0,0,0-1,7.57c-.16,2.17-.22,3.92-.25,5.14A8.59,8.59,0,0,0,134.14,414.47Z" style="fill:#263238"></path><path d="M134.49,410.55a3.67,3.67,0,0,0,0-.87c0-.65,0-1.47,0-2.48,0-2.15,0-5.27.12-9.11.19-7.7.85-16,2.13-27.65,1.21-11,2.84-23.75,4.55-32.05.37-1.89.74-3.59,1.09-5.08s.62-2.78.89-3.82.43-1.78.58-2.41a3.62,3.62,0,0,0,.15-.85,3.75,3.75,0,0,0-.3.81c-.19.62-.43,1.41-.72,2.38s-.65,2.3-1,3.79-.8,3.18-1.2,5.06A280.81,280.81,0,0,0,136,368c-1.28,11.69-1.86,22.34-1.91,30.06,0,3.85,0,7,.13,9.13.07,1,.12,1.82.16,2.48A3.52,3.52,0,0,0,134.49,410.55Z" style="fill:#263238"></path><path d="M134.54,390a14.75,14.75,0,0,0,0-2.59,69.3,69.3,0,0,0-.79-7,92.79,92.79,0,0,0-2.28-10.23,83.66,83.66,0,0,0-4.28-12.1,64.51,64.51,0,0,0-12.56-19.56,32.51,32.51,0,0,0-3-2.75c-.46-.38-.86-.76-1.27-1.06l-1.14-.79a15.32,15.32,0,0,0-2.18-1.4c-.13.17,3.09,2.06,7.15,6.38a68,68,0,0,1,12.24,19.48,94.93,94.93,0,0,1,4.3,12,101.19,101.19,0,0,1,2.43,10.13c.54,2.92.85,5.3,1,6.95A17.56,17.56,0,0,0,134.54,390Z" style="fill:#263238"></path><polygon points="114.69 426.24 116.75 454.44 152.97 454.44 155.03 426.24 114.69 426.24" style="fill:#263238"></polygon><rect x="111.19" y="415.13" width="48.17" height="11.11" style="fill:#263238"></rect><polygon points="111.19 453.36 111.19 456.44 113.45 456.44 158.56 456.44 158.56 453.36 111.19 453.36" style="fill:#455a64"></polygon><polygon points="115.67 461.87 113.45 456.44 156.83 456.44 154.25 461.87 115.67 461.87" style="fill:#455a64"></polygon><path d="M154.36,435.46a1.5,1.5,0,0,1-.17.26l-.54.71-2.11,2.71-.1.12-.09-.13c-1.32-1.83-3.09-4.29-5.18-7.17h.3c-1.55,2.18-3.26,4.62-5.11,7.23l-.16.22-.18-.21L135,432h.35l-.33.42-5.42,6.79-.18.22-.16-.23L124.12,432l.3,0-6.29,7.16-.12.13-.08-.14-2-3.31c-.21-.36-.37-.65-.51-.88a1.16,1.16,0,0,1-.15-.32,1.75,1.75,0,0,1,.21.28l.56.85,2.07,3.25-.2,0,6.19-7.25.16-.18.14.19,5.15,7.2h-.35l5.4-6.8.34-.42.17-.21.18.21,6,7.21-.34,0,5.16-7.19.15-.21.15.21,5.07,7.25h-.18l2.19-2.63.59-.68C154.28,435.53,154.35,435.45,154.36,435.46Z" style="fill:#e0e0e0"></path><path d="M155.54,426.06c0,.12-9.08.22-20.28.22s-20.27-.1-20.27-.22,9.07-.23,20.27-.23S155.54,425.93,155.54,426.06Z" style="fill:#455a64"></path><path d="M157.37,456.75c0,.12-9.87.22-22,.22s-22-.1-22-.22,9.86-.23,22-.23S157.37,456.62,157.37,456.75Z" style="fill:#263238"></path></g><g id="freepik--character-2--inject-6"><path d="M424.69,241.89c-.79-3.39,3.21-15.11.63-15.37-3.29-.33-3.85,13-4,14.18s-1.84,1-1.68,0c.24-1.54,2.43-16.61-.89-16.64-1.84,0-1.92,3.33-1.92,3.33s-1.24,14.85-2.81,14.78-.45-8.52-.29-11.66-1.35-4.75-2.47-3.45c-1.63,1.91-1.62,9.57-1.83,12.58s-1,11.68-4.12,7.35-7.1-6.53-8.57-6.38-1.74,2.27-.32,3.1a19.62,19.62,0,0,1,3.89,3.71,19.26,19.26,0,0,1,2.25,3.69,16.59,16.59,0,0,1,1.63,5.25,10.32,10.32,0,0,0,4.58,7.13l-.18,23.79L407.88,299l18.53,6.43-2.44-42c.91-8.07,4.47-18.27,5.76-23,2.07-7.55,1.1-7.87.18-7.91C427.87,232.45,425.45,245.2,424.69,241.89Z" style="fill:#a36957"></path><path d="M422.31,252.12a17.58,17.58,0,0,0-2.27.38,8.89,8.89,0,0,0-4.53,3.09,8.8,8.8,0,0,0-.9,1.47l-.12.24-.18-.18a13.24,13.24,0,0,0-3.51-2.57c-1-.49-1.61-.68-1.6-.74a5.4,5.4,0,0,1,1.7.52,11.85,11.85,0,0,1,3.68,2.51l-.3.06a8.53,8.53,0,0,1,.93-1.54,8.77,8.77,0,0,1,2.38-2.14,8.11,8.11,0,0,1,2.39-1,7.31,7.31,0,0,1,1.71-.2A2.45,2.45,0,0,1,422.31,252.12Z" style="fill:#7c3b29"></path><path d="M421.4,263.27a13.81,13.81,0,0,1-8,.26c0-.12,1.81.16,4,.09S421.37,263.16,421.4,263.27Z" style="fill:#7c3b29"></path><path d="M309.41,201.2a13.92,13.92,0,0,1,11.4-12.51,18,18,0,0,0,4.7-.88,26.72,26.72,0,0,0,3.25-2.18,9.3,9.3,0,0,1,11.5,1.55c2.66,2.94,3.34-1.46,9.32,1.54,5,2.49,2.76,6.6,2.76,6.6A10.66,10.66,0,0,1,363.5,203c.79,3,.43,6.8,3,8.63,1.23.89,2.86,1,4.13,1.88,2.34,1.56,2.66,4.86,2.35,7.66s-.95,5.78.26,8.32c2,4.17,8.21,5.43,9.29,9.92.51,2.12-.21,4.75,1.4,6.23a7.51,7.51,0,0,0,2.34,1.15,9.74,9.74,0,0,1,1.6,17.22c-.83.53-1.83,1-2.1,2s.47,2.09,1,3a9.36,9.36,0,0,1-12.41,13.05,14.67,14.67,0,0,1-8.09,7.43,8.9,8.9,0,0,1-5.09.5,10.28,10.28,0,0,1-3.66-1.91c-5.27-4-12.71-10.09-13.64-16.62" style="fill:#263238"></path><path d="M309.29,211.38l-.23-4.68L337,200.48c8.65-1.19,18.29,7.21,19.11,15.89.91,9.65,1.64,21.47.72,28.72-1.86,14.58-12.92,16.77-12.92,16.77l.39,14.4-32.07,1.4Z" style="fill:#a36957"></path><path d="M350.86,226.92a1.86,1.86,0,0,1-1.74,1.93,1.79,1.79,0,0,1-2-1.62,1.87,1.87,0,0,1,1.74-1.93A1.78,1.78,0,0,1,350.86,226.92Z" style="fill:#263238"></path><path d="M353.25,222.63c-.23.25-1.67-.75-3.67-.68s-3.44,1.11-3.66.88.11-.55.73-1a5.14,5.14,0,0,1,2.93-1,4.9,4.9,0,0,1,2.92.84C353.13,222.09,353.36,222.52,353.25,222.63Z" style="fill:#263238"></path><path d="M332.17,227.85a1.87,1.87,0,0,1-1.73,1.94,1.78,1.78,0,0,1-2-1.62,1.87,1.87,0,0,1,1.73-1.94A1.79,1.79,0,0,1,332.17,227.85Z" style="fill:#263238"></path><path d="M333.58,223.62c-.22.25-1.67-.75-3.67-.69s-3.44,1.12-3.66.88.11-.55.74-1a5.15,5.15,0,0,1,2.92-1,4.93,4.93,0,0,1,2.93.85C333.47,223.07,333.69,223.5,333.58,223.62Z" style="fill:#263238"></path><path d="M341.3,238.24a12.92,12.92,0,0,1,3.24-.69c.51-.07,1-.19,1.06-.54a2.62,2.62,0,0,0-.38-1.5c-.52-1.22-1.07-2.5-1.64-3.85-2.27-5.47-3.93-10-3.71-10.07s2.24,4.27,4.52,9.75c.54,1.35,1.07,2.64,1.56,3.87a2.9,2.9,0,0,1,.33,2,1.25,1.25,0,0,1-.82.77,3.31,3.31,0,0,1-.86.15A13.54,13.54,0,0,1,341.3,238.24Z" style="fill:#263238"></path><path d="M343.92,261.9a38.39,38.39,0,0,1-20.09-4.6s5.22,10,20.19,8.21Z" style="fill:#7c3b29"></path><path d="M340.61,243.09a3.6,3.6,0,0,0-3.28-1.24,3.29,3.29,0,0,0-2.23,1.29,2.08,2.08,0,0,0-.09,2.39,2.44,2.44,0,0,0,2.65.58,7.61,7.61,0,0,0,2.51-1.6,2.28,2.28,0,0,0,.55-.61.68.68,0,0,0,0-.75" style="fill:#7c3b29"></path><path d="M335.46,239.8c.32,0,.39,2.15,2.3,3.63s4.21,1.18,4.24,1.48c0,.14-.5.44-1.48.5A5.45,5.45,0,0,1,337,244.3a4.72,4.72,0,0,1-1.8-3.05C335.08,240.34,335.31,239.8,335.46,239.8Z" style="fill:#263238"></path><path d="M333.85,215.75c-.18.56-2.18.36-4.52.72s-4.22,1.05-4.55.57c-.15-.23.17-.75.92-1.3a7.94,7.94,0,0,1,6.91-1C333.48,215.08,333.93,215.49,333.85,215.75Z" style="fill:#263238"></path><path d="M352.33,216.86c-.34.47-1.73,0-3.39.07s-3.05.4-3.39-.07c-.15-.22.06-.69.66-1.14a4.9,4.9,0,0,1,5.46,0C352.27,216.17,352.48,216.63,352.33,216.86Z" style="fill:#263238"></path><path d="M358.58,198.58c-2,5.23-6.64,13.14-12.15,14.08a16.42,16.42,0,0,1-15-5.51c-.64,4.17-5.12,6.58-9.24,7.47a16.67,16.67,0,0,1-8.84-.17,8.78,8.78,0,0,1-5.89-6.19c-.59-2.92,3.24-10.36,6.15-11" style="fill:#263238"></path><path d="M318.75,275.74a11.43,11.43,0,0,1-7.62,10.72,8.1,8.1,0,0,1-15.41,4.26,9.77,9.77,0,0,0-1.36-2.65c-1.54-1.69-4.28-1.14-6.5-1.69-4-1-6.05-5.66-5.9-9.79a10.38,10.38,0,0,0-.06-2.43c-.36-1.63-1.74-2.79-2.79-4.08-4.34-5.3-3.28-13.53.71-19.1,1.33-1.85,3-3.82,2.74-6.08a12.26,12.26,0,0,0-1.5-3.5,10.38,10.38,0,0,1,2-11.47,2.26,2.26,0,0,0,1-2.72,12.11,12.11,0,0,1,9.28-13.63,2.86,2.86,0,0,0,1.05-.32c.9-.55.84-1.83.88-2.88.13-2.78,1.89-8.07,3.86-10,5.48-5.4,11.43-1.75,13.59,0,0,0,5.42,19.53,4.91,23.28s-2.56,13.14-1.19,17.24,3.75,12.54,2.33,16.42S318.75,275.74,318.75,275.74Z" style="fill:#263238"></path><path d="M353.92,438.4s42.34,11.72,44,12.32c2.55.89,2.12,10.24-1.85,10.09-1.87-.07-32.52,1.14-36.39.9s-15.55-4.84-15.55-4.84Z" style="fill:#D10024"></path><path d="M371.56,454.55c.21,0,.5-2.21,1.87-4.54s3.12-3.73,3-3.9-2.18,1-3.61,3.55S371.38,454.57,371.56,454.55Z" style="fill:#263238"></path><path d="M367.14,452.55c.21,0,.64-2,1.77-4.17s2.46-3.76,2.3-3.91-1.77,1.25-2.93,3.59S367,452.54,367.14,452.55Z" style="fill:#263238"></path><path d="M363,451.44c.22,0,.05-2.12,1-4.47s2.46-3.8,2.31-4-2,1.15-3,3.7S362.83,451.5,363,451.44Z" style="fill:#263238"></path><path d="M363.76,446a7.57,7.57,0,0,0,.45-3.15,14.8,14.8,0,0,0-.43-3.45,13.08,13.08,0,0,0-.63-2,2.31,2.31,0,0,0-.68-1,1.12,1.12,0,0,0-1.45.07,1.92,1.92,0,0,0-.57,1.2,8.55,8.55,0,0,0-.05,1.12,9.23,9.23,0,0,0,.26,2.07,12.77,12.77,0,0,0,1.3,3.24,8.49,8.49,0,0,0,1.91,2.54c.09-.06-.62-1.05-1.46-2.78a13.65,13.65,0,0,1-1.11-3.14,9.38,9.38,0,0,1-.21-1.94c0-.65,0-1.46.39-1.77a.41.41,0,0,1,.56-.05,1.72,1.72,0,0,1,.47.74,16.56,16.56,0,0,1,.64,1.87,17.51,17.51,0,0,1,.56,3.3C363.83,444.76,363.64,446,363.76,446Z" style="fill:#263238"></path><path d="M363.7,445.54a6,6,0,0,0-2.73-.44,12.3,12.3,0,0,0-3,.37,6.55,6.55,0,0,0-1.73.64,1.78,1.78,0,0,0-1,1.93,2.14,2.14,0,0,0,1.53,1.52,3.93,3.93,0,0,0,1.9,0,7.44,7.44,0,0,0,2.75-1.35,7.32,7.32,0,0,0,2-1.94,19.88,19.88,0,0,0-2.25,1.53,7.48,7.48,0,0,1-2.6,1.12,3.33,3.33,0,0,1-1.57,0,1.44,1.44,0,0,1-1-1,1.1,1.1,0,0,1,.63-1.18,6.49,6.49,0,0,1,1.54-.6,14.65,14.65,0,0,1,2.85-.5C362.65,445.49,363.68,445.66,363.7,445.54Z" style="fill:#263238"></path><path d="M378.07,455c.2,0,0-1.84.83-3.82s2.21-3.15,2.07-3.32-1.84.84-2.73,3.05S377.89,455.08,378.07,455Z" style="fill:#263238"></path><path d="M348.52,457a8,8,0,0,0,1.64.77,36,36,0,0,0,4.71,1.46A67.56,67.56,0,0,0,371,460.73c6.34-.07,12.06-.36,16.21-.53l4.9-.26a9.18,9.18,0,0,0,1.8-.19,8.68,8.68,0,0,0-1.81-.09l-4.91,0L371,460a75.67,75.67,0,0,1-16-1.32C350.93,457.87,348.57,456.83,348.52,457Z" style="fill:#263238"></path><path d="M347.27,457.93c.06.09,1.22-.58,3.17-1.44a14.74,14.74,0,0,1,8-1.33c3.19.49,5.46,2.63,6.93,4.12a24,24,0,0,0,2.44,2.49,13.4,13.4,0,0,0-2.07-2.83,16.88,16.88,0,0,0-2.81-2.63,10.06,10.06,0,0,0-4.38-1.85,14,14,0,0,0-8.33,1.58A11.23,11.23,0,0,0,347.27,457.93Z" style="fill:#263238"></path><g style="opacity:0.30000000000000004"><path d="M353.92,438.4s42.34,11.72,44,12.32c2.55.89,2.12,10.24-1.85,10.09-1.87-.07-32.52,1.14-36.39.9s-15.55-4.84-15.55-4.84Z"></path></g><path d="M306.88,389.77l-9.14,18.78s-48.87-14.86-61.18-14.18S214.16,400,211.76,410s-2.72,23.8,11.65,33.38,85.76,14.87,85.76,14.87h28.25l46.18-60.89-7.44-6Z" style="fill:#263238"></path><path d="M322.25,431a4.1,4.1,0,0,1-.93,0c-.6,0-1.5,0-2.65-.21a55.65,55.65,0,0,1-9.58-2,92.19,92.19,0,0,1-13.5-5.29c-4.94-2.33-10.21-5.2-15.75-8.17a161.82,161.82,0,0,0-16-7.65,71.07,71.07,0,0,0-13.8-4.13,47.82,47.82,0,0,0-9.67-.84c-1.15,0-2,.09-2.65.1a5.12,5.12,0,0,1-.93,0,5,5,0,0,1,.92-.13c.61-.05,1.49-.21,2.65-.22a45.45,45.45,0,0,1,9.76.65,69.13,69.13,0,0,1,13.93,4,155.14,155.14,0,0,1,16,7.64c5.54,3,10.79,5.85,15.7,8.2a96.29,96.29,0,0,0,13.39,5.38,59.21,59.21,0,0,0,9.48,2.15c1.14.2,2,.24,2.63.33A6.09,6.09,0,0,1,322.25,431Z" style="fill:#455a64"></path><path d="M355.64,453.27c9.08-3.57,59-19.45,76.67-39.87a19.52,19.52,0,0,0,4.83-16.95c-2.46-13.62-15-22.7-28-17.56-1.85.74-6.09,2.39-7.87,3.34-4.84,2.6-83.37,52.41-83.37,52.41s13.68,26.68,13.34,27.7Z" style="fill:#263238"></path><path d="M380.23,394.06a1.06,1.06,0,0,1-.21.17l-.66.45-2.56,1.67-9.49,6-31.4,19.74-17.06,10.63.11-.35c3.64,8.74,6.73,16.2,9,21.52,1.06,2.61,1.91,4.69,2.51,6.18.27.68.48,1.23.65,1.65a2.75,2.75,0,0,1,.19.58,3.3,3.3,0,0,1-.28-.54c-.18-.41-.42-.95-.73-1.62l-2.66-6.11c-2.26-5.31-5.43-12.73-9.15-21.44l-.09-.22.2-.13,17-10.67L367.08,402l9.59-5.87,2.62-1.58.69-.39C380.14,394.09,380.22,394.05,380.23,394.06Z" style="fill:#455a64"></path><path d="M311.26,417.61a8.13,8.13,0,0,1-2.32-.87,32.42,32.42,0,0,1-5.13-3.07,32.77,32.77,0,0,1-4.48-4,8.16,8.16,0,0,1-1.53-1.95c.14-.13,2.64,2.7,6.37,5.41S311.34,417.44,311.26,417.61Z" style="fill:#455a64"></path><path d="M338.44,395.48a17.86,17.86,0,0,1,.12,3.12c0,1.93.11,4.58.37,7.5s.67,5.55,1,7.45a18.22,18.22,0,0,1,.44,3.1,13.54,13.54,0,0,1-.87-3,58.23,58.23,0,0,1-1.36-15A14.11,14.11,0,0,1,338.44,395.48Z" style="fill:#455a64"></path><path d="M344.28,394.83s.24-.06.62.08a2.81,2.81,0,0,1,1.29,1.09,3,3,0,0,1,.38,2.52A2.72,2.72,0,0,1,344,400.3a2.63,2.63,0,0,1-2.67-1.56,2.79,2.79,0,0,1,.34-2.52,2.49,2.49,0,0,1,1.37-1,.92.92,0,0,1,.62,0,3,3,0,0,0-1.62,1.25,2.41,2.41,0,0,0-.19,2.08,2.13,2.13,0,0,0,2.12,1.16,2.19,2.19,0,0,0,2-1.36,2.59,2.59,0,0,0-.21-2.1A3.66,3.66,0,0,0,344.28,394.83Z" style="fill:#455a64"></path><path d="M320.13,392.85a2.72,2.72,0,0,1,.43.93,8.23,8.23,0,0,1,.41,2.76,9.81,9.81,0,0,1-.91,4,9.06,9.06,0,0,1-8.11,5.46,9.8,9.8,0,0,1-4.1-.68,8.71,8.71,0,0,1-2.4-1.42,2.9,2.9,0,0,1-.7-.75A15.49,15.49,0,0,0,308,405a10,10,0,0,0,3.92.53,8.78,8.78,0,0,0,7.63-5.14,9.88,9.88,0,0,0,1-3.82A14.65,14.65,0,0,0,320.13,392.85Z" style="fill:#455a64"></path><path d="M366.71,402.15a3.21,3.21,0,0,1-1.85-.26,7,7,0,0,1-4.69-7.17,3.24,3.24,0,0,1,.51-1.8c.1,0-.09.71-.07,1.81a7.37,7.37,0,0,0,4.41,6.76C366,402,366.72,402.05,366.71,402.15Z" style="fill:#455a64"></path><path d="M391.13,439.49s.09-.06.3-.16l.89-.44,3.46-1.67c3-1.46,7.35-3.56,12.59-6.39a96.42,96.42,0,0,0,17.38-11.57,51.28,51.28,0,0,0,8.31-9.05,20.07,20.07,0,0,0,3-12.56,19.79,19.79,0,0,0-1.65-6.43,17.42,17.42,0,0,0-1.61-2.82,23.36,23.36,0,0,0-2.06-2.48,54.1,54.1,0,0,0-4.67-4.21,14,14,0,0,0-5.09-3,18.87,18.87,0,0,0-5.65-.63,29.14,29.14,0,0,0-5.37.59,33,33,0,0,0-9.05,3.42l-12.35,6.85-3.37,1.85-.88.47-.3.15a1.75,1.75,0,0,1,.28-.18l.86-.51,3.33-1.92c2.9-1.65,7.08-4.06,12.3-7a33.06,33.06,0,0,1,9.11-3.5,29.78,29.78,0,0,1,5.43-.62,19.4,19.4,0,0,1,5.76.63,14.31,14.31,0,0,1,5.24,3.1,56.15,56.15,0,0,1,4.71,4.24,25.6,25.6,0,0,1,2.1,2.51,18,18,0,0,1,1.65,2.9,20.68,20.68,0,0,1-1.4,19.37,51.43,51.43,0,0,1-8.39,9.11,95,95,0,0,1-17.49,11.54c-5.27,2.8-9.64,4.87-12.66,6.28l-3.49,1.6-.92.4Z" style="fill:#455a64"></path><path d="M321.22,438.66s-42.48,11.2-44.19,11.77c-2.56.87-2.25,10.22,1.72,10.12,1.88,0,32.51,1.55,36.38,1.35s14.35-4.18,14.35-4.18Z" style="fill:#D10024"></path><path d="M303.38,454.6c-.21,0-.47-2.22-1.81-4.57s-3.08-3.77-2.94-3.93,2.16,1,3.56,3.59S303.56,454.62,303.38,454.6Z" style="fill:#263238"></path><path d="M307.82,452.65c-.21,0-.61-2-1.71-4.2s-2.41-3.79-2.26-3.93,1.76,1.27,2.9,3.62S308,452.64,307.82,452.65Z" style="fill:#263238"></path><path d="M312,451.59c-.21,0,0-2.12-.93-4.48s-2.41-3.84-2.26-4,2,1.17,2.92,3.74S312.15,451.66,312,451.59Z" style="fill:#263238"></path><path d="M311.29,446.12a7.51,7.51,0,0,1-.41-3.16,14.52,14.52,0,0,1,.47-3.45,14.86,14.86,0,0,1,.65-1.95,2.31,2.31,0,0,1,.69-1,1.13,1.13,0,0,1,1.46.09,1.82,1.82,0,0,1,.54,1.2,8.55,8.55,0,0,1,.05,1.12,9.66,9.66,0,0,1-.29,2.07,12.79,12.79,0,0,1-1.34,3.22,8.65,8.65,0,0,1-1.94,2.53c-.09-.07.63-1.05,1.49-2.77a13.51,13.51,0,0,0,1.15-3.13,9.27,9.27,0,0,0,.23-1.93c0-.65,0-1.47-.37-1.78a.41.41,0,0,0-.56-.06,1.93,1.93,0,0,0-.47.74,14.84,14.84,0,0,0-.66,1.86,16.22,16.22,0,0,0-.6,3.3C311.23,444.9,311.41,446.1,311.29,446.12Z" style="fill:#263238"></path><path d="M311.35,445.69a5.86,5.86,0,0,1,2.74-.41,11.91,11.91,0,0,1,3,.41,6.59,6.59,0,0,1,1.73.65,1.81,1.81,0,0,1,.93,2,2.09,2.09,0,0,1-1.54,1.49,3.8,3.8,0,0,1-1.9,0,7.33,7.33,0,0,1-2.74-1.38,7.62,7.62,0,0,1-1.94-2,17.84,17.84,0,0,1,2.23,1.55,7.74,7.74,0,0,0,2.59,1.16,3.33,3.33,0,0,0,1.57,0,1.41,1.41,0,0,0,1-1,1.09,1.09,0,0,0-.61-1.19,7.11,7.11,0,0,0-1.53-.62,14.28,14.28,0,0,0-2.85-.53C312.41,445.64,311.37,445.8,311.35,445.69Z" style="fill:#263238"></path><path d="M296.87,455c-.21,0,0-1.83-.79-3.83s-2.16-3.17-2-3.34,1.83.86,2.69,3.08S297,455.05,296.87,455Z" style="fill:#263238"></path><path d="M326.39,457.29a8.43,8.43,0,0,1-1.65.75,34.43,34.43,0,0,1-4.73,1.4,67.44,67.44,0,0,1-16.18,1.34c-6.35-.15-12.06-.51-16.2-.73l-4.91-.32a8.9,8.9,0,0,1-1.79-.21,8.59,8.59,0,0,1,1.81-.06l4.91.09,16.19.52A75.65,75.65,0,0,0,319.91,459C324,458.17,326.34,457.16,326.39,457.29Z" style="fill:#263238"></path><path d="M327.63,458.27c-.06.1-1.21-.59-3.16-1.47a14.58,14.58,0,0,0-8-1.43c-3.2.44-5.49,2.56-7,4a24.41,24.41,0,0,1-2.47,2.46,13.74,13.74,0,0,1,2.11-2.81,17.14,17.14,0,0,1,2.84-2.59,10.14,10.14,0,0,1,4.4-1.8,14,14,0,0,1,8.31,1.68A11.38,11.38,0,0,1,327.63,458.27Z" style="fill:#263238"></path><path d="M285.13,459.58c-.07-.05.3-.61.64-1.59a7.75,7.75,0,0,0-1.31-7.61c-.65-.81-1.18-1.21-1.13-1.28s.67.23,1.44,1a7.22,7.22,0,0,1,1.38,8C285.68,459.14,285.18,459.62,285.13,459.58Z" style="fill:#263238"></path><path d="M319.26,273.67l-21.84,6.12,7.1,67.95s-4.08,24.26-4.08,30.63a12.68,12.68,0,0,0,6.44,11.4l69.78,2.1,3.56-3.08a10.06,10.06,0,0,0,2.33-7.79l-13-103.68-24.29-5.27Z" style="fill:#D10024"></path><path d="M304.6,347.66a3,3,0,0,1-.13-.52l-.29-1.49c-.25-1.34-.59-3.2-1-5.48-.82-4.68-1.93-11.06-3.17-18.11s-2.26-13.46-3.05-18.14c-.36-2.29-.66-4.16-.88-5.51-.09-.62-.16-1.12-.22-1.5a2.1,2.1,0,0,1,0-.53,5,5,0,0,1,.13.52c.07.38.17.87.29,1.48.24,1.34.59,3.21,1,5.49.82,4.67,1.94,11.06,3.17,18.12l3.06,18.13c.36,2.29.66,4.16.87,5.51.09.62.17,1.11.22,1.5A1.91,1.91,0,0,1,304.6,347.66Z" style="fill:#263238"></path><path d="M348.36,273.29a8.36,8.36,0,0,1-1,.8c-.34.24-.78.49-1.27.8s-1.1.61-1.79.89a24.25,24.25,0,0,1-5,1.55A37.08,37.08,0,0,1,333,278a61.14,61.14,0,0,1-6.34-.19,36.8,36.8,0,0,1-5.14-.68,14.81,14.81,0,0,1-3.32-1.1c-.37-.19-.65-.34-.84-.46l-.27-.19a11.93,11.93,0,0,1,1.17.5,17.86,17.86,0,0,0,3.32,1,38.78,38.78,0,0,0,5.11.58c1.93.13,4.07.22,6.3.17a39.73,39.73,0,0,0,6.26-.62,25.23,25.23,0,0,0,4.92-1.44A28,28,0,0,0,348.36,273.29Z" style="fill:#263238"></path><path d="M370.92,378.08a1.56,1.56,0,0,1-.47.1l-1.37.2c-.6.08-1.33.18-2.18.25s-1.83.19-2.9.24c-2.15.16-4.72.22-7.57.18s-6-.25-9.25-.63-6.36-1-9.14-1.57-5.26-1.3-7.32-2c-1-.3-2-.64-2.76-.92s-1.5-.53-2-.76l-1.29-.51a1.74,1.74,0,0,1-.44-.21,2.53,2.53,0,0,1,.47.13l1.31.45c.57.2,1.26.44,2.08.69s1.73.57,2.77.86c2.05.62,4.53,1.26,7.31,1.87s5.85,1.13,9.11,1.52,6.37.58,9.21.67,5.4,0,7.54-.09c1.08,0,2-.13,2.9-.19s1.58-.12,2.18-.18l1.38-.12Z" style="fill:#263238"></path><path d="M379,319.83a4.53,4.53,0,0,1-.34-.95c-.18-.61-.44-1.51-.74-2.62-.61-2.21-1.38-5.3-2.15-8.72s-1.36-6.55-1.76-8.81c-.19-1.14-.34-2.05-.43-2.69a4.6,4.6,0,0,1-.1-1,4.59,4.59,0,0,1,.26,1c.14.71.33,1.6.56,2.66.46,2.25,1.11,5.36,1.87,8.78s1.49,6.51,2,8.74c.24,1.06.45,1.95.62,2.65A5.63,5.63,0,0,1,379,319.83Z" style="fill:#263238"></path><g style="opacity:0.30000000000000004"><path d="M326.88,276.75c.88,3,.06,7.47.49,10.18a144.81,144.81,0,0,1,1.75,32.93,4.49,4.49,0,0,0,.11,1.79,5.61,5.61,0,0,0,.89,1.38c2.21,2.92,2.78,6.82,2.33,10.46A42.29,42.29,0,0,1,329.29,344c-.07-2.93.08-7.32.31-10.24,0-.59.35-.21.36-.8.1-3.52-.49-6.78-3-9.29a7.73,7.73,0,0,1-1.4-1.57,5.26,5.26,0,0,1-.47-1.88q-2.28-18.43-3.11-37a2.94,2.94,0,0,1,.4-2,5.41,5.41,0,0,1,1.36-.94c1-.62,1.54-1.72,2.56-2.21"></path></g><path d="M297.42,279.79s-19.94,4.7-15.11,34.58a184.79,184.79,0,0,0,11.9,42.44c3.27,7.69,10.67,13,19,11.9,3.62-.47,7.2.1,9.63-1.36,3.68-2.22,5.28-9.7,6-17.76.47-5.5.28-11.22,1-15.91,1.19-7.66-2.32-11.27-6.82-12.17L305.33,318l-1,9.32Z" style="fill:#D10024"></path><path d="M311.46,339.27c.05,0,.34.36,1,.87a7,7,0,0,0,3.29,1.31,10.93,10.93,0,0,0,5.22-.74,16.86,16.86,0,0,0,5.64-3.25,9.94,9.94,0,0,0,2.92-5.64,9.65,9.65,0,0,0-.62-5.2,13.74,13.74,0,0,0-2.81-4.05,3.47,3.47,0,0,1,1.1.81,9.48,9.48,0,0,1,2.16,3,9.88,9.88,0,0,1,.81,5.5,10.39,10.39,0,0,1-3.08,6.05,16.71,16.71,0,0,1-5.9,3.35,11,11,0,0,1-5.51.62,6.7,6.7,0,0,1-3.39-1.59A2.69,2.69,0,0,1,311.46,339.27Z" style="fill:#263238"></path><path d="M293.14,354.19c.07,0,.38.94,1.2,2.56a22.8,22.8,0,0,0,4.54,6.1,21.54,21.54,0,0,0,9.76,5.4,21.9,21.9,0,0,0,13.5-.95c2.26-.91,3.08-3.42,3.94-5.52a35.6,35.6,0,0,0,1.68-6.46A113.23,113.23,0,0,0,328.89,344c.23-3.17.42-5.77.56-7.69.08-.84.14-1.53.19-2.09a3.14,3.14,0,0,1,.11-.72,2.28,2.28,0,0,1,0,.73c0,.56,0,1.25,0,2.1-.09,1.92-.2,4.52-.35,7.7a101.42,101.42,0,0,1-1,11.42,35.7,35.7,0,0,1-1.67,6.6,24.23,24.23,0,0,1-1.49,3.31,5.92,5.92,0,0,1-2.8,2.61,22.21,22.21,0,0,1-14,.93,21.94,21.94,0,0,1-14.39-12,16.41,16.41,0,0,1-.77-2A3.08,3.08,0,0,1,293.14,354.19Z" style="fill:#263238"></path><path d="M299.79,341.23a17.38,17.38,0,0,1,0-3.59c.12-2.21.33-5.26.6-8.63.15-1.69.26-3.28.44-4.75a7.37,7.37,0,0,1,1.36-3.75,4,4,0,0,1,2.26-1.48,1.46,1.46,0,0,1,1,0c0,.07-.36,0-.92.24a4,4,0,0,0-1.94,1.51c-1.3,1.72-1.15,4.92-1.49,8.26s-.56,6.41-.8,8.61A19.48,19.48,0,0,1,299.79,341.23Z" style="fill:#263238"></path><path d="M306,309.48c-.18-.94-.46-2.31-.82-4-.72-3.37-1.76-8-2.95-13.14a73.94,73.94,0,0,0-1.9-7.19,16.51,16.51,0,0,0-2.92-5.37l-.39.31a16.88,16.88,0,0,1,2.7,5.27c.71,2.13,1.21,4.58,1.82,7.14,1.19,5.12,2.31,9.75,3.16,13.09.42,1.67.77,3,1,3.95a5.9,5.9,0,0,0,.48,1.42A6.73,6.73,0,0,0,306,309.48Z" style="fill:#263238"></path><g style="opacity:0.30000000000000004"><path d="M306.19,315.91a7.75,7.75,0,0,0-4.48,1.52,14.9,14.9,0,0,0-5.94,8.4,17.47,17.47,0,0,0,.46,10.34c.37,1,1.07,2.2,2.16,2.15,1.29-.05,1.8-1.65,2-2.92q.74-5.28,1.48-10.57a9.93,9.93,0,0,1,.93-3.48,3.34,3.34,0,0,1,2.91-1.84l.33-3.77"></path></g><path d="M424.88,332A29.53,29.53,0,0,0,429,318.16,46.22,46.22,0,0,0,427,303l-21.18-6.57-.13,7.08Z" style="fill:#D10024"></path><path d="M405.73,303.46l-36.14-26.14v1.81l3.9,40.69s29.88,13.38,37.79,15.35a15.76,15.76,0,0,0,13.6-3.18Z" style="fill:#D10024"></path><path d="M416.44,323.22a3.12,3.12,0,0,1-.82-.44,14.33,14.33,0,0,1-2-1.55,22.3,22.3,0,0,1-4.82-6.74,43.58,43.58,0,0,1-2.76-7.81c-.27-1-.46-1.86-.59-2.44a3.56,3.56,0,0,1-.14-.91,22.61,22.61,0,0,1,1.09,3.25,55.07,55.07,0,0,0,2.87,7.69,24.47,24.47,0,0,0,4.61,6.7C415.37,322.45,416.49,323.14,416.44,323.22Z" style="fill:#263238"></path><path d="M426.94,308.07a3,3,0,0,1-.94,0,23.43,23.43,0,0,1-2.53-.27,31.07,31.07,0,0,1-15.1-7,21.08,21.08,0,0,1-1.85-1.76c-.41-.44-.62-.7-.59-.72s1,.87,2.67,2.2a36.2,36.2,0,0,0,7.06,4.35,35.77,35.77,0,0,0,7.87,2.58C425.62,307.87,426.94,308,426.94,308.07Z" style="fill:#263238"></path><path d="M407.32,319.82a7.38,7.38,0,0,1-1.13-2.24,22,22,0,0,1-1.2-5.93,43.54,43.54,0,0,1,.05-6,10.73,10.73,0,0,1,.31-2.47,12.82,12.82,0,0,1,.06,2.49c0,1.54-.06,3.66.1,6a26.64,26.64,0,0,0,1,5.85C407,318.92,407.4,319.78,407.32,319.82Z" style="fill:#263238"></path><path d="M369.05,293a5.55,5.55,0,0,1,.37,1.1c.21.72.49,1.77.83,3.07.66,2.6,1.51,6.21,2.35,10.21s1.51,7.66,1.94,10.31c.22,1.32.38,2.39.47,3.14a4.57,4.57,0,0,1,.1,1.16,5.48,5.48,0,0,1-.3-1.13l-.63-3.11c-.56-2.74-1.29-6.31-2.09-10.26s-1.61-7.5-2.2-10.23c-.26-1.23-.49-2.27-.67-3.11A4.93,4.93,0,0,1,369.05,293Z" style="fill:#263238"></path><path d="M305.11,321.68l4.42-49,14.68,5.79,1.89,49.84s-4.7,7.1-12.63,4.19A12.87,12.87,0,0,1,305.11,321.68Z" style="fill:#a36957"></path><polygon points="307.96 229.78 335.4 253.91 330.43 271.93 328.44 272.52 304.45 247.97 305.97 230.37 307.96 229.78" style="fill:#263238"></polygon><polygon points="305.97 230.37 333.41 254.5 328.44 272.52 302.46 248.56 305.97 230.37" style="fill:#455a64"></polygon><path d="M324.83,280.05a10.64,10.64,0,0,0,2.75-6.74c-.06-3.69-1.08-12.58-1.08-12.58s4.77-10,4.65-11.37-.34-1.31-2-.77-7,9.68-7,9.68l-1.74-6.78s4.42-7.12,4.77-8.12.93-1.81-.17-1.9-9.41,7.95-9.41,7.95l.67,7.43s-.17.59-1.36-.45-.89-9.91-.89-9.91,2.83-5.25,2.76-6,.51-1.58,0-2.88-2.19.2-2.19.2L309,245l-2-7.14s.08-1.53-1.9-1.54l.77,23.17,5,17.83Z" style="fill:#a36957"></path><path d="M326.1,328.32s0-.3-.08-.87-.08-1.47-.14-2.56c-.1-2.27-.24-5.55-.43-9.72-.33-8.45-.81-20.49-1.39-35.06V280l.12-.11a9.51,9.51,0,0,0,2.66-3.75,10.87,10.87,0,0,0,.55-4.82c-.17-3.39-.59-6.92-1.07-10.53v-.1l0-.09c.9-1.9,1.8-3.87,2.67-5.89.43-1,.87-2,1.26-3.06.2-.52.39-1.05.54-1.57l.1-.39c0-.12,0-.2,0-.32a2,2,0,0,0-.14-.7c.06-.16-.7,0-1.18.17a1.59,1.59,0,0,0-.65.33,5.19,5.19,0,0,0-.58.57,27.39,27.39,0,0,0-2.1,2.73c-1.32,1.92-2.56,3.94-3.77,6l-.44.74-.21-.83c-.55-2.14-1.14-4.45-1.73-6.78l0-.14.08-.13,2.24-3.67c.85-1.44,1.79-2.92,2.48-4.34.14-.4.34-.81.43-1.15.06-.18,0-.26,0-.24a.52.52,0,0,0-.33-.07,3.52,3.52,0,0,0-.4.2c-.16.09-.33.23-.49.33-.33.24-.66.49-1,.75-2.54,2.09-4.92,4.34-7.24,6.56l.1-.28q.35,3.76.67,7.43v.12a.63.63,0,0,1-.66.42,1.18,1.18,0,0,1-.48-.16,3.14,3.14,0,0,1-.68-.47,2.63,2.63,0,0,1-.71-1.51,20.32,20.32,0,0,1-.34-3c-.1-2-.1-3.87,0-5.77v-.08l0-.07a50.52,50.52,0,0,0,2.66-5.52,1.59,1.59,0,0,0,.06-.28c0-.08,0-.29,0-.41,0-.28.1-.53.14-.77a2.59,2.59,0,0,0-.05-1.33c-.15-.49-.3-.69-.67-.62a2.64,2.64,0,0,0-1.12.63l0,0-5.53,7.2-.35.47-.16-.57q-1-3.71-1.94-7.15v-.08a1.2,1.2,0,0,0-.5-1,2.05,2.05,0,0,0-1.13-.29l.27-.27c.27,9.42.5,17.24.67,23.17v0c1.1,4.25,1.95,7.55,2.54,9.82l.63,2.54c.14.57.18.87.18.87s-.1-.28-.27-.85-.41-1.43-.71-2.52c-.63-2.25-1.53-5.54-2.7-9.78h0v0L305,236.34v-.28h.27a2.53,2.53,0,0,1,1.43.38,1.7,1.7,0,0,1,.74,1.44v-.09q1,3.44,2,7.14l-.51-.1,5.5-7.23,0,0h0a3.28,3.28,0,0,1,1.43-.79,1.13,1.13,0,0,1,1,.26,1.75,1.75,0,0,1,.42.79,3.23,3.23,0,0,1,.07,1.63c0,.26-.1.5-.12.72a1.92,1.92,0,0,0,0,.35,2.07,2.07,0,0,1-.09.46,47.93,47.93,0,0,1-2.7,5.65l0-.14c-.05,1.88,0,3.79.06,5.72a19.41,19.41,0,0,0,.33,2.86,2.11,2.11,0,0,0,.49,1.13,3,3,0,0,0,.54.39.79.79,0,0,0,.23.08h0s0,.06,0,.07v0h0l0,0h0c.16.07-.21-.08-.17-.06v.14q-.33-3.66-.68-7.43v-.16l.12-.12c2.33-2.23,4.7-4.48,7.28-6.61.33-.26.66-.52,1-.77.18-.12.34-.25.54-.36a1.92,1.92,0,0,1,.74-.3,1.11,1.11,0,0,1,.84.26.9.9,0,0,1,.17.93c-.13.47-.31.82-.45,1.21-.78,1.61-1.67,3-2.54,4.47l-2.24,3.67,0-.27,1.73,6.78-.64-.09c1.22-2.07,2.47-4.09,3.81-6a29,29,0,0,1,2.16-2.8,5.74,5.74,0,0,1,.66-.64,2.31,2.31,0,0,1,.87-.44,7.37,7.37,0,0,1,.87-.23,1.6,1.6,0,0,1,.55,0,.83.83,0,0,1,.58.41,3,3,0,0,1,.21,1,4.73,4.73,0,0,1,0,.52l-.11.43c-.17.57-.36,1.1-.56,1.63-.41,1-.85,2.08-1.28,3.09-.88,2-1.79,4-2.69,5.91l0-.19c.47,3.63.88,7.16,1.05,10.59a11.58,11.58,0,0,1-.62,5.07,10.14,10.14,0,0,1-2.86,4l.12-.25c.47,14.58.86,26.63,1.14,35.07.12,4.18.21,7.46.27,9.74,0,1.09,0,1.94.05,2.55S326.1,328.32,326.1,328.32Z" style="fill:#7c3b29"></path><path d="M310.12,257.59c-.19,0-.57-2.81-.85-6.33s-.34-6.39-.15-6.39.58,2.82.85,6.33S310.32,257.57,310.12,257.59Z" style="fill:#7c3b29"></path></g><g id="freepik--character-1--inject-6"><path d="M273,265.81l-15.67-31.68a116.39,116.39,0,1,0-24,34.13l0,.06Z" style="fill:#fafafa"></path><path d="M273,265.81l-39.66,2.62-.21,0,.11-.19,0-.06.18.14a121.44,121.44,0,0,1-9.12,8.11c-1.66,1.4-3.5,2.68-5.33,4.06s-3.83,2.66-5.9,3.91a115,115,0,0,1-29.08,13,117.69,117.69,0,0,1-36.9,4.49,115.71,115.71,0,0,1-40.88-9.17,117.14,117.14,0,0,1-38-26,116.37,116.37,0,0,1-32.16-94.44c.19-2.26.63-4.5,1-6.76s.9-4.47,1.37-6.72a120.68,120.68,0,0,1,9.57-26,121.67,121.67,0,0,1,15.92-23.57l2.41-2.65,1.2-1.33,1.27-1.26,2.52-2.52L73.93,99a114.32,114.32,0,0,1,23-16.12c2-1.14,4.12-2.08,6.2-3.09s4.23-1.81,6.33-2.71c2.16-.75,4.28-1.6,6.45-2.27s4.33-1.39,6.54-1.89a119.27,119.27,0,0,1,26.41-3.73,116.43,116.43,0,0,1,110.73,72.45,121.56,121.56,0,0,1,5.8,18.57c.31,1.54.61,3.06.91,4.57s.46,3,.7,4.52l.33,2.24c.08.74.15,1.48.23,2.22.17,1.47.28,2.93.36,4.39a115.88,115.88,0,0,1-2.33,31.75A119.26,119.26,0,0,1,261.91,223c-1.4,4-2.93,7.75-4.47,11.14v-.09c10.08,20.55,15.23,31,15.57,31.72-.35-.69-5.55-11.14-15.77-31.63l0,0,0,0c1.53-3.39,3-7.09,4.43-11.13a116.16,116.16,0,0,0,5.88-44.8c-.09-1.45-.2-2.91-.37-4.38l-.24-2.21-.33-2.23c-.24-1.48-.39-3-.71-4.5s-.6-3-.91-4.56a120.43,120.43,0,0,0-5.8-18.5,116,116,0,0,0-110.36-72.1,119,119,0,0,0-26.3,3.72c-2.19.5-4.33,1.24-6.5,1.88s-4.27,1.52-6.42,2.27c-2.1.9-4.24,1.71-6.31,2.7s-4.16,1.93-6.17,3.08a113.5,113.5,0,0,0-22.85,16l-2.61,2.39-2.51,2.51-1.26,1.26-1.2,1.32-2.4,2.64A120.58,120.58,0,0,0,48.46,133a120.32,120.32,0,0,0-9.54,25.92c-.46,2.23-1,4.45-1.36,6.69s-.77,4.47-1,6.73a116.41,116.41,0,0,0,5.91,52.07,115.2,115.2,0,0,0,26.08,42,116.88,116.88,0,0,0,37.83,26,115.51,115.51,0,0,0,40.73,9.18,117.31,117.31,0,0,0,36.78-4.44,114.8,114.8,0,0,0,29-12.88c2.08-1.24,4-2.6,5.9-3.89s3.66-2.64,5.32-4a121.52,121.52,0,0,0,9.13-8.07l.6-.57-.42.71,0,.06-.1-.18Z" style="fill:#263238"></path><path d="M92,285.54l119.76-.19s-28.63,19-63,16.73C118.87,300.14,92,285.54,92,285.54Z" style="fill:#455a64"></path><path d="M144.45,205.2l6.83,25,24.95-33.69-5.88,88.34H134.73l-10.38.5s1.54-13.92,2.17-21.79A87.74,87.74,0,0,1,129.68,245C135,227.7,144.45,205.2,144.45,205.2Z" style="fill:#fafafa"></path><path d="M152.49,244.3c.09.11-3.94,3.35-9,7.24s-9.21,6.94-9.3,6.83,3.93-3.36,9-7.24S152.4,244.18,152.49,244.3Z" style="fill:#263238"></path><polygon points="214.5 193.02 195.1 183.69 187.49 174.65 176.73 185.83 148.19 284.6 197.13 284.6 203.4 267.65 214.5 202.21 214.5 193.02" style="fill:#D10024"></polygon><path d="M127.2,286l-1.31-21,59.11-10s10.1-48.78,16.32-56.77c5.75-7.38,13.23-4.82,13.23-4.82s6.75,4.62,5.14,22.31c-.85,9.27-4.24,41.39-5.46,53a18.59,18.59,0,0,1-2.7,7.83h0a18.54,18.54,0,0,1-15.73,8.74Z" style="fill:#D10024"></path><path d="M194.66,267.23c-.09,0-.17-.93-.6-2.36a14.09,14.09,0,0,0-7.29-8.65c-1.34-.67-2.26-.9-2.23-1a6.46,6.46,0,0,1,2.38.66,12.91,12.91,0,0,1,7.49,8.88A6.56,6.56,0,0,1,194.66,267.23Z" style="fill:#263238"></path><g style="opacity:0.2"><path d="M193.58,185.11a91.75,91.75,0,0,1-3.53,18.21l-4.44-1.3a11.56,11.56,0,0,1,1.32,9.19,34.22,34.22,0,0,1-3.84,8.72q-11,19.81-22.06,39.64l22.24-50.5-.58-9.34,4.28-.91Z"></path></g><g style="opacity:0.2"><path d="M184.81,254.47a11.81,11.81,0,0,1,12.09,8.75,3,3,0,0,1,0,1.9,1.28,1.28,0,0,1-1.55.79,2,2,0,0,1-.86-1.15,18,18,0,0,0-10.28-9.57"></path></g><path d="M161.19,259.09a6.56,6.56,0,0,1,.3-.81l1-2.29,3.59-8.35,12.06-27.49c1.72-3.9,3.38-7.66,4.94-11.18l0,.11c-.19-3.32-.38-6.44-.55-9.33v-.2l.18,0,4.29-.89-.14.11,5.33-10.79,1.49-2.95.41-.76a1.88,1.88,0,0,1,.15-.26.83.83,0,0,1-.1.28l-.35.79c-.34.73-.8,1.74-1.39,3l-5.17,10.87,0,.09-.1,0-4.28.93.18-.23c.18,2.89.38,6,.6,9.33v.06l0,.06c-1.56,3.53-3.21,7.29-4.93,11.19l-12.19,27.43c-1.57,3.46-2.84,6.28-3.75,8.29l-1,2.24A6.22,6.22,0,0,1,161.19,259.09Z" style="fill:#263238"></path><path d="M127.15,285.34a2.49,2.49,0,0,1-.05-.35c0-.26,0-.6-.08-1-.07-.94-.17-2.26-.29-4-.23-3.45-.56-8.4-1-14.49v-.17l.16,0,42.77-7.86,15.77-2.86-.2.19c3.47-13.17,6.47-24.6,8.63-32.78,1.08-4,2-7.27,2.55-9.53.31-1.09.54-1.94.71-2.55l.19-.66.08-.21a.67.67,0,0,1,0,.23l-.15.66c-.15.62-.36,1.48-.63,2.57l-2.41,9.57c-2.11,8.19-5.06,19.64-8.45,32.82l0,.16-.16,0L168.78,258,126,265.7l.16-.2c.33,6.1.6,11.05.79,14.51.08,1.69.14,3,.18,3.95,0,.43,0,.77,0,1A1.88,1.88,0,0,1,127.15,285.34Z" style="fill:#263238"></path><path d="M211.52,191.39c0,.09-1,.24-2.5.8a15.94,15.94,0,0,0-8.93,8.36c-.66,1.47-.87,2.47-1,2.44s0-.25.07-.71a10.3,10.3,0,0,1,.55-1.87,14.72,14.72,0,0,1,9.15-8.57,11,11,0,0,1,1.9-.43C211.26,191.36,211.51,191.35,211.52,191.39Z" style="fill:#263238"></path><path d="M99.76,169.16c1.75-3.23,1-16.27,3.67-15.81,3.45.59.26,14.3,0,15.55s1.59,1.55,1.72.42c.2-1.63,2.2-17.58,5.59-16.68,1.88.49,1,3.92,1,3.92s-2.92,15.46-1.3,15.83,2.85-8.54,3.57-11.78,2.72-4.45,3.49-2.81c1.12,2.4-1,10.19-1.68,13.31s-2.26,12.17,2.13,8.63,9-4.64,10.51-4.07,1.13,2.8-.55,3.24a21.23,21.23,0,0,0-5,2.68,20,20,0,0,0-3.32,3.12,17.53,17.53,0,0,0-3.14,4.88,10.94,10.94,0,0,1-6.66,6h0l-2.56,12.18-16.58-3.55,3.69-12.89c1.35-8.47.61-19.85.62-25,0-8.26,1.09-8.32,2-8.1C99.17,158.66,98.05,172.31,99.76,169.16Z" style="fill:#ffd1bd"></path><path d="M99.29,180.24a19.38,19.38,0,0,1,2.21,1,9.32,9.32,0,0,1,3.74,4.42,10.63,10.63,0,0,1,.5,1.74l.05.28.24-.13a13.7,13.7,0,0,1,4.29-1.63c1.13-.22,1.83-.24,1.83-.3a5.55,5.55,0,0,0-1.87,0,12.57,12.57,0,0,0-4.45,1.53l.29.15a9,9,0,0,0-.51-1.84,9.63,9.63,0,0,0-1.82-2.84,9.07,9.07,0,0,0-2.16-1.68,7.39,7.39,0,0,0-1.68-.67A2,2,0,0,0,99.29,180.24Z" style="fill:#cc8f75"></path><path d="M97.09,191.84a14.58,14.58,0,0,0,8.11,2.53c0-.12-1.89-.34-4.13-1.05S97.14,191.73,97.09,191.84Z" style="fill:#cc8f75"></path><polygon points="157.11 179.84 144.45 205.2 151.28 230.19 169.47 210.97 187.4 177.66 157.11 179.84" style="fill:#ffd1bd"></polygon><path d="M145.19,182.22s-18,6.4-18,7.59h0c-3.18,2.49-13.77,28.1-17.14,32.94L100.41,237h0l8.08-31.54-17.77-5.22S75.54,236.86,73.7,245A30,30,0,0,0,74,259.65l.1-.08a16.85,16.85,0,0,0,6.66,8.95c7.53,4.83,14.57,5.74,21.77.42,4.08-3,8.74-6.65,13-10.05l1.12,26.48h9.81c0-1.49-.3-19.63-.3-19.63a101.47,101.47,0,0,0,3-13.09c.89-6.24,15.51-47.22,15.51-47.22L156,183.57l.27-8.09Z" style="fill:#D10024"></path><path d="M116.44,285.14a5.29,5.29,0,0,1-.08-.82q-.06-.88-.15-2.37c-.11-2.12-.26-5.1-.45-8.78-.34-7.49-.8-17.8-1.32-29.36v-.06c.21-1.09.44-2.26.67-3.44,2.37-12.14,4.53-23.14,6.1-31.15l1.91-9.42c.22-1.08.41-1.93.54-2.56l.15-.66a1.22,1.22,0,0,1,.07-.22.58.58,0,0,1,0,.23l-.11.67-.45,2.58-1.74,9.46c-1.53,8-3.63,19-6,31.18-.22,1.17-.45,2.34-.66,3.43v-.06c.46,11.56.87,21.88,1.16,29.36.12,3.69.22,6.67.29,8.79,0,1,0,1.79.06,2.38A5.13,5.13,0,0,1,116.44,285.14Z" style="fill:#263238"></path><path d="M126.51,261.64a4.35,4.35,0,0,1,.09-.83c.09-.58.2-1.37.35-2.36.35-2.1.83-5,1.42-8.68,1.25-7.36,3-17.44,4.86-28.59,1.27-7.29,2.46-14.13,3.48-20v-.06c2.5-5.66,4.59-10.39,6.07-13.76.73-1.62,1.32-2.91,1.74-3.85l.47-1a1.57,1.57,0,0,1,.19-.34,1.65,1.65,0,0,1-.12.36c-.11.28-.24.62-.41,1-.4.94-.94,2.25-1.62,3.89-1.45,3.39-3.48,8.15-5.9,13.84v0c-1,5.83-2.16,12.68-3.41,20-2,11.14-3.72,21.21-5,28.57-.66,3.61-1.19,6.55-1.58,8.64l-.45,2.35A6.11,6.11,0,0,1,126.51,261.64Z" style="fill:#263238"></path><path d="M92,258.7c-.07-.05.7-1.15,1.78-3A54,54,0,0,0,97.4,248,65.17,65.17,0,0,0,99.88,240c.5-2.11.73-3.43.81-3.42a3,3,0,0,1,0,.95c-.06.61-.19,1.48-.4,2.55a49.76,49.76,0,0,1-2.35,8.19,44.43,44.43,0,0,1-3.78,7.64c-.59.93-1.09,1.65-1.47,2.13S92,258.73,92,258.7Z" style="fill:#263238"></path><g style="opacity:0.2"><path d="M93.37,257.24a1.1,1.1,0,0,0-.76,1.55,1.64,1.64,0,0,0,1.72.78,3.44,3.44,0,0,0,1.75-.95,11.9,11.9,0,0,0,3-5.34c1.53-4.82,1.6-10,1.66-15A61.32,61.32,0,0,1,93.41,257"></path></g><g style="opacity:0.2"><path d="M115.23,259.59a26.58,26.58,0,0,1-3.63-16.2c.54-7.7,4.28-14.74,7.07-21.93-1.6,7.56-2.52,15.07-4,22.34,0,0,.77,10.81.79,15.6"></path></g><g style="opacity:0.2"><path d="M127.65,254.77c.78-11.52,1.57-23.06,3.6-34.42a110,110,0,0,1,11.6-33.23c-1.45,4.56-5.92,14.14-5.92,14.14s-6.45,34-9.25,51.16"></path></g><path d="M126.2,268l1.61,17.86-8.43,0-7.46-.12a52.06,52.06,0,0,1-8.56.22.9.9,0,0,1-.4-.08,6.74,6.74,0,0,1-1.3-.32h0c-.76-.28-1.54-.77-1.42-1.61.37-2.56,1.89-2.77,1.89-2.77l.76,0,.06-.22c-1.15,0-2.13,0-2.64-.09-.24,0-.38-.05-.4-.09s-3-.35-2.76-1.93C97.48,276.21,99,276,99,276l2.46-.16c-1.19,0-2.21,0-2.73-.09-.24,0-.38-.05-.4-.09s-3-.35-2.76-1.93c.37-2.56,1.89-2.77,1.89-2.77l2-.14c-1,0-1.77,0-2.22-.08-.24,0-.38-.05-.4-.09s-3-.35-2.76-1.93C94.49,266.15,96,266,96,266s4.7-.34,7.93-.47c0,0,3.67-3.3,5.11-3.15,2.16.23,14.7,4.86,14.7,4.86Z" style="fill:#ffd1bd"></path><path d="M110.38,280.63a16.73,16.73,0,0,1-4.18.4,16.81,16.81,0,0,1-4.14-.13,16.83,16.83,0,0,1,4.18-.41A15.94,15.94,0,0,1,110.38,280.63Z" style="fill:#cc8f75"></path><path d="M110.4,275.56a32.67,32.67,0,0,1-5.94.49,33.57,33.57,0,0,1-6-.06,32.19,32.19,0,0,1,5.94-.48A33.06,33.06,0,0,1,110.4,275.56Z" style="fill:#cc8f75"></path><g style="opacity:0.78"><path d="M110,270.42a33.58,33.58,0,0,1-6,.48,32.57,32.57,0,0,1-6-.06,33.53,33.53,0,0,1,5.94-.48A32.65,32.65,0,0,1,110,270.42Z" style="fill:#cc8f75"></path></g><path d="M102.6,265.58a8.42,8.42,0,0,0,1.89.15l4.57.15,4.57.17a9.34,9.34,0,0,0,1.9,0,7.66,7.66,0,0,0-1.88-.3c-1.17-.11-2.79-.23-4.58-.29s-3.4-.06-4.58,0A8,8,0,0,0,102.6,265.58Z" style="fill:#cc8f75"></path><path d="M195.68,120.11c2.12-5.15,8.82-7.5,14.06-5.58s8.72,7.28,9.35,12.82a11.49,11.49,0,0,1-1.6,7.88,10.65,10.65,0,0,1-7.32,4.12,14.6,14.6,0,0,1-15.43-20.23" style="fill:#263238"></path><path d="M217,120.79s-.1.27-.38.69a12.31,12.31,0,0,1-1.34,1.64,14.92,14.92,0,0,1-12.84,4.41,13.1,13.1,0,0,1-2.07-.47,2.14,2.14,0,0,1-.72-.31c0-.09,1.08.25,2.83.41a16,16,0,0,0,12.54-4.3C216.27,121.65,216.9,120.74,217,120.79Z" style="fill:#455a64"></path><path d="M219.19,126.67s-.18.22-.57.54a17.71,17.71,0,0,1-1.74,1.26,20,20,0,0,1-6.52,2.74,16.18,16.18,0,0,1-3.91.3,14.06,14.06,0,0,1-3.15-.52,10.84,10.84,0,0,1-2-.75c-.45-.22-.7-.36-.68-.39s1.06.38,2.79.79a16.15,16.15,0,0,0,3.08.4,17.61,17.61,0,0,0,3.79-.34,22.48,22.48,0,0,0,6.43-2.55C218.24,127.26,219.14,126.6,219.19,126.67Z" style="fill:#455a64"></path><path d="M141.6,135.5c-12.38-27.23,17.07-40.9,33.13-36.37,15.1,4.27,21.54,11.78,24,21.88s2.37,21-1.59,30.67c-2,4.74-5.47,9.57-10.57,10.16" style="fill:#263238"></path><path d="M156.39,202.79c-.22-13-.37-30.88-.37-30.8s-11.18-1.86-13.5-16.45c-1.15-7.25-.79-19.15-.18-28.87.56-8.76,6.35-19.49,15.08-18.57L184.65,115a5.13,5.13,0,0,1,4.59,5.21h0l-1.78,56.32" style="fill:#ffd1bd"></path><path d="M149,137a1.87,1.87,0,0,0,1.77,1.9,1.78,1.78,0,0,0,1.94-1.65,1.86,1.86,0,0,0-1.77-1.9A1.78,1.78,0,0,0,149,137Z" style="fill:#263238"></path><path d="M169.2,137a1.86,1.86,0,0,0,1.77,1.9,1.78,1.78,0,0,0,1.94-1.65,1.87,1.87,0,0,0-1.77-1.9A1.78,1.78,0,0,0,169.2,137Z" style="fill:#263238"></path><path d="M157.13,147.36a13.89,13.89,0,0,0-3.27-.59c-.52-.05-1-.15-1.09-.5a2.62,2.62,0,0,1,.34-1.53l1.52-3.91c2.11-5.58,3.64-10.16,3.42-10.24s-2.12,4.37-4.23,9.94c-.51,1.37-1,2.68-1.46,3.94a2.93,2.93,0,0,0-.27,2,1.3,1.3,0,0,0,.85.76,3.75,3.75,0,0,0,.87.12A12.68,12.68,0,0,0,157.13,147.36Z" style="fill:#263238"></path><path d="M156,172.05a37.11,37.11,0,0,0,19.54-5.22S170.59,177,156,175.62Z" style="fill:#cc8f75"></path><path d="M186.45,138.59c.22-.1,7.81-3.46,7.9,5.27s-8.7,7-8.72,6.78S186.45,138.59,186.45,138.59Z" style="fill:#ffd1bd"></path><path d="M188.27,147.3s.15.1.41.22a1.51,1.51,0,0,0,1.14,0c.92-.35,1.68-1.82,1.71-3.39a5.09,5.09,0,0,0-.45-2.18,1.75,1.75,0,0,0-1.16-1.15.77.77,0,0,0-.89.42c-.12.25-.06.42-.11.44s-.19-.15-.12-.51a1,1,0,0,1,.34-.55,1.16,1.16,0,0,1,.84-.23,2.14,2.14,0,0,1,1.6,1.34,5,5,0,0,1,.55,2.43c0,1.76-.92,3.41-2.18,3.79a1.59,1.59,0,0,1-1.39-.22C188.29,147.51,188.24,147.32,188.27,147.3Z" style="fill:#cc8f75"></path><path d="M157.72,153a7.94,7.94,0,0,0,1.09,2.13,2.83,2.83,0,0,0,2,1.17A2.57,2.57,0,0,0,163,155.1a4.15,4.15,0,0,0,.6-2.44c0-.77-.39-1.69-1.15-1.78a1.89,1.89,0,0,0-.93.21l-4,1.62" style="fill:#cc8f75"></path><path d="M159.32,156.29a5.55,5.55,0,0,0,2.15-.26,3.09,3.09,0,0,0,1.62-1.47,3.24,3.24,0,0,0,0-2.63,3,3,0,0,0-.35-.6c-.16-.17-.13-.16-.3-.13s-.43.17-.65.25l-.66.27c-.86.35-1.64.65-2.29.9a6.88,6.88,0,0,1-2.19.65,7.3,7.3,0,0,1,2-1.12c.63-.31,1.39-.66,2.23-1l.65-.29a7,7,0,0,1,.74-.3.92.92,0,0,1,.59,0,1.2,1.2,0,0,1,.45.35,4.2,4.2,0,0,1,.45.77,3.74,3.74,0,0,1-.13,3.21,3.42,3.42,0,0,1-2,1.65,3.29,3.29,0,0,1-1.74.07C159.5,156.47,159.31,156.33,159.32,156.29Z" style="fill:#263238"></path><path d="M196.25,132.61c-.9-.06-8.11.87-7.54,14.28.53,12.53,9.31,9.77,12.12,5.06C203.48,147.48,205,133.23,196.25,132.61Z" style="fill:#455a64"></path><path d="M200.71,134.2a2,2,0,0,1,0-.35c0-.27,0-.6,0-1,0-.92-.06-2.21-.11-3.82-.06-3.29-.15-7.86-.26-13.15l.16.16H196.7l.17-.17c0,1,.06,2.05.08,3.12.13,5,.25,9.71.34,13.64v.11l-.12,0a6.78,6.78,0,0,0-3.83,2.46,9.15,9.15,0,0,0-1.53,3.24,14.28,14.28,0,0,0-.39,2.29c0,.27,0,.47,0,.61s0,.21,0,.21a.58.58,0,0,1,0-.21c0-.14,0-.34,0-.62a13.22,13.22,0,0,1,.32-2.32,9,9,0,0,1,1.51-3.33,7,7,0,0,1,4-2.61l-.11.14c-.11-3.92-.25-8.6-.39-13.63,0-1.07-.06-2.13-.08-3.13v-.17h4.05v.16c.06,5.28.11,9.86.15,13.15,0,1.61,0,2.9,0,3.82v1A2.45,2.45,0,0,1,200.71,134.2Z" style="fill:#455a64"></path><path d="M196.25,115.85a28.83,28.83,0,0,0-12.77-13.19,53.54,53.54,0,0,0-10.77-4s5.25-1.24,13.74,2.53c3.85,1.72,7.74,4,10.31,7.3,1.63,2.13,3.67,6.28,3.66,7.35Z" style="fill:#455a64"></path><path d="M195.29,155.69a.72.72,0,0,1-.26-.07,4.44,4.44,0,0,1-.67-.35,5.92,5.92,0,0,1-1.89-2,9.84,9.84,0,0,1-1.16-3.93,27.91,27.91,0,0,1,0-5,30.63,30.63,0,0,1,.83-4.94,13.94,13.94,0,0,1,1.44-3.84,5.93,5.93,0,0,1,1.9-2,3.49,3.49,0,0,1,.67-.34.72.72,0,0,1,.26-.07s-.33.15-.86.52a6.26,6.26,0,0,0-1.77,2,14.66,14.66,0,0,0-1.34,3.79,32.77,32.77,0,0,0-.8,4.9,30.37,30.37,0,0,0,0,4.95,9.89,9.89,0,0,0,1.06,3.85,6.07,6.07,0,0,0,1.76,2C195,155.54,195.3,155.66,195.29,155.69Z" style="fill:#263238"></path><rect x="158.08" y="154.3" width="10.44" height="3.93" rx="1.7" transform="translate(-27.04 34.37) rotate(-11.1)" style="fill:#455a64"></rect><path d="M167.5,154.68l30.65-9.62A1.46,1.46,0,0,1,200,146h0a1.45,1.45,0,0,1-1,1.84l-31.35,8.47Z" style="fill:#455a64"></path><path d="M190.15,150.45a8.69,8.69,0,0,1,1-.35l2.8-.86c1.18-.36,2.62-.74,4.15-1.24a2.86,2.86,0,0,0,1-.62,1.51,1.51,0,0,0,.43-1.07.93.93,0,0,0-.63-.88,2.44,2.44,0,0,0-1.28,0l-9.19,3-2.8.87a7.47,7.47,0,0,1-1,.27,7.26,7.26,0,0,1,1-.4l2.77-1c2.34-.79,5.56-1.9,9.18-3a2.53,2.53,0,0,1,1.47,0,1.25,1.25,0,0,1,.85,1.18,1.8,1.8,0,0,1-.53,1.3,3.07,3.07,0,0,1-1.12.69c-1.58.5-3,.84-4.19,1.18l-2.83.75A5.66,5.66,0,0,1,190.15,150.45Z" style="fill:#263238"></path><path d="M174.07,132.75c-.24.37-2.34-.77-4.94-.31s-4.21,2.22-4.55,1.95c-.17-.11,0-.76.7-1.55a6.28,6.28,0,0,1,3.58-1.93,6.21,6.21,0,0,1,4,.62C173.81,132,174.19,132.59,174.07,132.75Z" style="fill:#cc8f75"></path><path d="M173.77,133.08a11.8,11.8,0,0,1-1.43-.36,8,8,0,0,0-3.46,0,8.05,8.05,0,0,0-3.11,1.49c-.71.56-1.08,1-1.14.94s.22-.56.9-1.22a6.94,6.94,0,0,1,6.9-1.55C173.33,132.66,173.8,133,173.77,133.08Z" style="fill:#263238"></path><path d="M175.12,127.21c-.22.7-2.45.65-5.1.78s-4.89.28-5.14-.4c-.12-.34.34-.85,1.25-1.31a10.13,10.13,0,0,1,7.65-.28C174.72,126.39,175.21,126.87,175.12,127.21Z" style="fill:#263238"></path><path d="M153.13,134.29c-.2.11-.59-.26-1.23-.7a6.3,6.3,0,0,0-2.65-1.07c-2.26-.37-4.08.67-4.34.3-.12-.15.19-.67,1-1.17a5.43,5.43,0,0,1,3.59-.68,4.91,4.91,0,0,1,3.19,1.84C153.25,133.59,153.3,134.2,153.13,134.29Z" style="fill:#cc8f75"></path><path d="M153.38,135.37c-.07,0-.41-.45-1.12-1.08a7,7,0,0,0-6.82-1.48c-.9.28-1.42.59-1.46.52s.41-.48,1.34-.87a6.61,6.61,0,0,1,3.84-.32,6.52,6.52,0,0,1,3.36,1.89A2.93,2.93,0,0,1,153.38,135.37Z" style="fill:#263238"></path><path d="M154.28,128.09c-.13.71-2.26.92-4.78.95s-4.66-.16-4.8-.88,2-1.71,4.78-1.73S154.42,127.39,154.28,128.09Z" style="fill:#263238"></path><path d="M177.83,107.4a28.83,28.83,0,0,0-4,7.53,9.79,9.79,0,0,0,.85,8.23c1.54,2.25,4.17,3.44,6.57,4.75s4.85,3.11,5.45,5.77c.18.83-.17,3.75.45,4.33.86.79,2.37.3,3-.67s1.08-4.18,1.1-5.35l.15-10.9c0-3.08,0-6.27-1.33-9-1.87-3.88-5.73-5.12-11.37-4.84" style="fill:#263238"></path><path d="M142,129.28a20.55,20.55,0,0,1,4.14-10.19,15.07,15.07,0,0,1,9.32-5.58c3.68-.56,7.4.46,11.12.67s7.94-.7,9.88-3.87c.61-1,.89-2.38.12-3.24a3.34,3.34,0,0,0-1.09-.72,28,28,0,0,0-15.9-2.57,21.93,21.93,0,0,0-13.93,7.79A18.1,18.1,0,0,0,142.14,127" style="fill:#263238"></path><path d="M139.79,123.8a1.89,1.89,0,0,1-.17-.47,9.57,9.57,0,0,1-.3-1.42,12.5,12.5,0,0,1,.5-5.3,14.09,14.09,0,0,1,4.39-6.55,18.18,18.18,0,0,1,8.8-4,24.71,24.71,0,0,1,9.66.43,33.81,33.81,0,0,1,4,1.22c1.25.46,2.36,1,3.43,1.25a14.75,14.75,0,0,0,5.18.46,3.85,3.85,0,0,0,1.7-.83,1.61,1.61,0,0,1-.34.38,3.11,3.11,0,0,1-1.31.65,13.77,13.77,0,0,1-5.33-.31c-1.1-.27-2.24-.76-3.47-1.19a34.57,34.57,0,0,0-4-1.16,24.77,24.77,0,0,0-9.47-.39,18,18,0,0,0-8.57,3.81,14,14,0,0,0-4.35,6.29,12.64,12.64,0,0,0-.64,5.16C139.64,123.12,139.84,123.79,139.79,123.8Z" style="fill:#455a64"></path><path d="M155.93,100.86a3,3,0,0,1,.92-.18,12.53,12.53,0,0,1,2.55,0,14.85,14.85,0,0,1,7.76,3.1c1.29,1,2.37,2.15,3.52,2.92a9.19,9.19,0,0,0,3.37,1.36,7.45,7.45,0,0,0,2.46.17c.58-.07.87-.23.9-.19a1.64,1.64,0,0,1-.86.39,6.85,6.85,0,0,1-2.57,0,9.07,9.07,0,0,1-3.57-1.32c-1.21-.79-2.32-1.91-3.57-2.91a15.58,15.58,0,0,0-7.48-3.15C157.26,100.76,155.94,101,155.93,100.86Z" style="fill:#455a64"></path><path d="M200.09,127.64s-.2-.34-.62-.9a6.22,6.22,0,0,0-2.32-1.79,10,10,0,0,0-4.26-.85,33.68,33.68,0,0,0-5.39.74,19.67,19.67,0,0,1-5.53.42,15.11,15.11,0,0,1-4.4-1.06,14.35,14.35,0,0,1-2.69-1.44A3.51,3.51,0,0,1,174,122a28.81,28.81,0,0,0,3.68,1.82,16.05,16.05,0,0,0,4.31.92,20.06,20.06,0,0,0,5.39-.45,30.63,30.63,0,0,1,5.48-.71,9.89,9.89,0,0,1,4.43,1,6.07,6.07,0,0,1,2.33,2,4.76,4.76,0,0,1,.38.74C200.08,127.54,200.11,127.64,200.09,127.64Z" style="fill:#455a64"></path><path d="M198.51,120.64s-.19-.34-.62-.88a5.86,5.86,0,0,0-2.33-1.64,8.68,8.68,0,0,0-4.22-.45c-1.61.16-3.36.65-5.25,1a11.41,11.41,0,0,1-5.43-.08,8.75,8.75,0,0,1-3.78-2.35,8.42,8.42,0,0,1-1.67-2.48A5.77,5.77,0,0,1,175,113a.75.75,0,0,1,0-.28,11.68,11.68,0,0,0,2.24,3.27,8.83,8.83,0,0,0,3.65,2.15,11.14,11.14,0,0,0,5.21,0c1.85-.35,3.62-.83,5.3-1a8.75,8.75,0,0,1,4.4.59,5.55,5.55,0,0,1,2.35,1.86A2.18,2.18,0,0,1,198.51,120.64Z" style="fill:#455a64"></path><path d="M161,220.65l.19-.16.55-.44a24.44,24.44,0,0,0,2-1.84,34.29,34.29,0,0,0,2.87-3.34c1-1.36,2.17-3,3.4-4.82,2.46-3.64,5.34-8.08,8.4-13.19,1.53-2.56,3.11-5.29,4.7-8.17.4-.72.79-1.45,1.2-2.18a13.23,13.23,0,0,1,1.37-2.18,4.75,4.75,0,0,1,2.12-1.54,2.57,2.57,0,0,1,1.35-.15,1.4,1.4,0,0,1,.64.35,1.76,1.76,0,0,1,.35.66v0l0,.05a2.29,2.29,0,0,1-.47.83,1.33,1.33,0,0,1-.88.42,2.81,2.81,0,0,1-1.73-.6A2.93,2.93,0,0,1,186,181a2.56,2.56,0,0,1,1.27-1.45,2.88,2.88,0,0,1,1.89-.27,2,2,0,0,1,1.54,1.2,1,1,0,0,1-.22,1.06,1.91,1.91,0,0,1-.9.49,2.65,2.65,0,0,1-2.93-1.34,2.39,2.39,0,0,1-.18-1.72,3,3,0,0,1,.9-1.45,2.33,2.33,0,0,1,1.55-.6,1.84,1.84,0,0,1,1.48.77,1.2,1.2,0,0,1,.18.89,1.14,1.14,0,0,1-.49.75,1.77,1.77,0,0,1-1.62.2,2,2,0,0,1-1.1-1.2,4.59,4.59,0,0,1-.24-1.59,5.5,5.5,0,0,1,.79-3,2.23,2.23,0,0,1,1.25-.94,2,2,0,0,1,1.51.27,1.48,1.48,0,0,1,.76,1.35,1.38,1.38,0,0,1-1,1.16,1.61,1.61,0,0,1-1.47-.23,2.1,2.1,0,0,1-.74-1.29,2.94,2.94,0,0,1,.13-1.45,6.36,6.36,0,0,1,.49-1.32,2.51,2.51,0,0,1,.95-1,3,3,0,0,1,1.29-.44,1.32,1.32,0,0,1,.7.09,1.62,1.62,0,0,1,.53.47,1.69,1.69,0,0,1,.29.64,1,1,0,0,1-.08.73,1.16,1.16,0,0,1-1.24.48,2.13,2.13,0,0,1-1.14-.59,3.42,3.42,0,0,1-1-2.25,3.68,3.68,0,0,1,.61-2.3,2.81,2.81,0,0,1,.85-.8,2.38,2.38,0,0,1,1.09-.3,1.61,1.61,0,0,1,1.07.32,1.21,1.21,0,0,1,.45,1,1.65,1.65,0,0,1-1.44,1.4,1.74,1.74,0,0,1-1.64-.93,3,3,0,0,1-.41-1.77,10.85,10.85,0,0,1,1.09-3l1.09-2.48c.65-1.48,1.17-2.63,1.52-3.42l.4-.89a3.19,3.19,0,0,1,.15-.3,2.38,2.38,0,0,1-.12.31l-.37.9-1.46,3.45L191,163a11.07,11.07,0,0,0-1,3,2.77,2.77,0,0,0,.39,1.65,1.56,1.56,0,0,0,1.45.82,1.44,1.44,0,0,0,1.23-1.19,1,1,0,0,0-.37-.82,1.48,1.48,0,0,0-.91-.26,2.26,2.26,0,0,0-1,.28,2.67,2.67,0,0,0-.77.73,3.38,3.38,0,0,0-.55,2.13,3.12,3.12,0,0,0,.91,2.07,1.82,1.82,0,0,0,1,.51.91.91,0,0,0,1-.34,1.06,1.06,0,0,0-.19-1,1.29,1.29,0,0,0-.43-.38,1.11,1.11,0,0,0-.56-.07,2.47,2.47,0,0,0-2,1.34,6.21,6.21,0,0,0-.47,1.25,2.68,2.68,0,0,0-.11,1.31,1.74,1.74,0,0,0,.63,1.09,1.29,1.29,0,0,0,1.19.19,1.06,1.06,0,0,0,.78-.89,1.18,1.18,0,0,0-.62-1.05,1.72,1.72,0,0,0-1.27-.23,2,2,0,0,0-1.06.82,5.3,5.3,0,0,0-.73,2.82,4.18,4.18,0,0,0,.23,1.46,1.7,1.7,0,0,0,.9,1,1.47,1.47,0,0,0,1.32-.17.84.84,0,0,0,.22-1.17,1.51,1.51,0,0,0-1.21-.62,2,2,0,0,0-1.33.52,2.22,2.22,0,0,0,1.92,3.91,1.51,1.51,0,0,0,.74-.39.67.67,0,0,0,.14-.7,1.68,1.68,0,0,0-1.29-1,2.43,2.43,0,0,0-2.78,1.5,2.58,2.58,0,0,0,1,3,2.48,2.48,0,0,0,1.52.54,1.28,1.28,0,0,0,1.06-1v.09a1,1,0,0,0-.74-.76,2.31,2.31,0,0,0-1.18.14,4.41,4.41,0,0,0-2,1.43,14.57,14.57,0,0,0-1.34,2.12q-.6,1.11-1.2,2.19c-1.6,2.88-3.19,5.6-4.73,8.16-3.07,5.11-6,9.53-8.46,13.17-1.25,1.81-2.38,3.44-3.45,4.8a34.57,34.57,0,0,1-2.92,3.31A18,18,0,0,1,161,220.65Z" style="fill:#263238"></path></g></svg>